M48
; DRILL file {KiCad 7.0.9} date Thu Mar 13 10:23:07 2025
; FORMAT={-:-/ absolute / metric / decimal}
; #@! TF.CreationDate,2025-03-13T10:23:07+08:00
; #@! TF.GenerationSoftware,Kicad,Pcbnew,7.0.9
; #@! TF.FileFunction,Plated,1,4,PTH
FMAT,2
METRIC
; #@! TA.AperFunction,Plated,PTH,ViaDrill
T1C0.254
; #@! TA.AperFunction,Plated,PTH,ViaDrill
T2C0.300
; #@! TA.AperFunction,Plated,PTH,ComponentDrill
T3C0.700
; #@! TA.AperFunction,Plated,PTH,ComponentDrill
T4C0.914
; #@! TA.AperFunction,Plated,PTH,ComponentDrill
T5C1.000
; #@! TA.AperFunction,Plated,PTH,ComponentDrill
T6C1.001
; #@! TA.AperFunction,Plated,PTH,ComponentDrill
T7C1.200
; #@! TA.AperFunction,Plated,PTH,ComponentDrill
T8C1.300
; #@! TA.AperFunction,Plated,PTH,ComponentDrill
T9C1.900
; #@! TA.AperFunction,Plated,PTH,ComponentDrill
T10C3.500
%
G90
G05
T1
X74.91Y-105.76
X74.91Y-107.03
X74.92Y-99.32
X74.92Y-100.59
X74.94Y-111.72
X74.94Y-112.99
X74.94Y-122.49
X74.94Y-123.76
X74.96Y-134.57
X74.96Y-135.84
X74.99Y-117.64
X74.99Y-118.91
X75.02Y-94.94
X75.02Y-96.21
X75.48Y-86.95
X75.48Y-88.22
X75.52Y-80.3
X75.52Y-81.57
X75.56Y-83.47
X75.56Y-84.74
X75.56Y-140.61
X75.56Y-141.88
X76.0Y-144.52
X76.0Y-145.79
X77.38Y-126.96
X78.1Y-140.61
X78.1Y-141.88
X78.24Y-129.5
X78.3Y-122.79
X78.3Y-124.06
X78.54Y-144.52
X78.54Y-145.79
X78.62Y-79.77
X79.89Y-79.77
X80.37Y-133.99
X80.39Y-126.75
X80.64Y-140.61
X80.64Y-141.88
X81.08Y-144.52
X81.08Y-145.79
X81.37Y-133.99
X81.4Y-126.78
X82.65Y-67.59
X82.88Y-57.73
X82.95Y-80.93
X83.06Y-99.62
X83.14Y-82.96
X83.15Y-141.11
X83.47Y-66.4
X83.47Y-105.17
X83.48Y-141.46
X83.49Y-59.1
X83.61Y-89.44
X83.61Y-90.71
X83.65Y-84.47
X83.65Y-85.74
X83.88Y-76.36
X84.05Y-59.61
X84.34Y-112.73
X84.84Y-133.75
X84.89Y-129.75
X84.95Y-117.23
X85.05Y-125.04
X85.06Y-65.86
X85.09Y-114.85
X85.33Y-91.64
X85.33Y-92.91
X85.36Y-137.13
X85.45Y-81.73
X85.49Y-95.55
X85.68Y-82.96
X85.72Y-120.72
X85.87Y-137.12
X86.01Y-99.78
X86.01Y-102.835
X86.01Y-105.31
X86.01Y-107.84
X86.01Y-110.44
X86.01Y-112.74
X86.13Y-143.78
X86.13Y-145.05
X86.15Y-131.89
X86.383Y-126.84
X86.383Y-134.06
X86.88Y-138.18
X86.9Y-138.81
X87.38Y-126.74
X87.39Y-116.93
X87.61Y-138.82
X87.83Y-133.496
X87.86Y-96.01
X87.885Y-96.44
X87.99Y-81.72
X88.38Y-133.95
X88.4Y-126.75
X88.41Y-136.91
X88.71Y-131.6
X89.03Y-124.91
X89.12Y-129.63
X89.33Y-61.58
X89.38Y-136.72
X89.41Y-67.91
X89.64Y-122.29
X89.72Y-116.66
X89.86Y-61.58
X90.02Y-109.8
X90.29Y-107.6
X90.37Y-136.73
X90.38Y-126.74
X90.38Y-133.94
X90.41Y-102.78
X90.54Y-105.52
X90.7Y-95.91
X90.7Y-97.18
X90.89Y-88.3
X90.89Y-89.57
X90.94Y-130.44
X91.116Y-113.302
X91.16Y-144.2
X91.16Y-145.47
X91.38Y-126.74
X91.38Y-133.94
X91.39Y-136.76
X92.02Y-92.27
X92.07Y-123.81
X92.37Y-136.75
X92.38Y-126.76
X92.38Y-133.94
X92.52Y-83.33
X92.52Y-84.6
X93.0Y-119.14
X93.12Y-125.29
X93.31Y-110.37
X93.38Y-136.75
X93.41Y-112.99
X93.41Y-133.85
X93.43Y-88.3
X93.43Y-89.57
X94.12Y-98.76
X94.39Y-136.73
X94.43Y-132.62
X94.56Y-92.27
X95.05Y-70.44
X95.06Y-83.33
X95.06Y-84.6
X95.14Y-126.8
X95.41Y-133.94
X95.43Y-136.73
X95.78Y-101.82
X95.8Y-102.9
X95.81Y-104.04
X95.91Y-105.13
X95.93Y-59.07
X95.97Y-88.3
X95.97Y-89.57
X96.18Y-67.94
X96.41Y-136.73
X96.49Y-125.79
X97.2Y-114.85
X97.36Y-136.73
X97.383Y-134.01
X97.59Y-70.44
X97.6Y-83.33
X97.6Y-84.6
X97.61Y-79.89
X97.63Y-144.32
X97.63Y-145.59
X97.75Y-129.68
X97.91Y-76.29
X97.94Y-101.88
X98.04Y-105.04
X98.24Y-130.44
X98.3Y-136.79
X98.52Y-113.69
X98.655Y-107.785
X98.7Y-125.55
X98.71Y-97.81
X98.71Y-99.08
X98.71Y-126.25
X98.71Y-139.02
X98.86Y-117.62
X98.88Y-79.89
X99.07Y-131.04
X99.2Y-141.29
X99.37Y-136.81
X99.81Y-122.36
X100.17Y-144.32
X100.17Y-145.59
X100.28Y-60.8
X100.31Y-96.41
X100.31Y-97.68
X100.56Y-75.79
X100.83Y-86.27
X100.85Y-101.03
X101.02Y-102.82
X101.1Y-136.74
X101.13Y-83.76
X101.17Y-75.255
X101.31Y-62.1
X101.37Y-134.13
X101.45Y-104.97
X101.6Y-129.88
X101.86Y-131.29
X102.4Y-83.76
X102.71Y-144.32
X102.71Y-145.59
X102.85Y-96.41
X102.85Y-97.68
X103.27Y-53.24
X103.37Y-86.27
X103.47Y-102.9
X103.53Y-112.94
X104.46Y-119.01
X104.54Y-53.24
X105.27Y-82.32
X105.39Y-96.41
X105.39Y-97.68
X105.41Y-79.82
X105.73Y-139.24
X105.86Y-86.86
X106.07Y-100.31
X106.383Y-136.71
X106.882Y-101.102
X106.9Y-113.44
X107.02Y-138.195
X107.25Y-105.1
X107.45Y-136.75
X107.65Y-134.05
X107.81Y-82.32
X107.86Y-99.51
X107.89Y-133.11
X108.14Y-104.23
X108.54Y-125.94
X108.57Y-84.86
X108.62Y-130.59
X108.796Y-77.715
X108.9Y-132.72
X108.99Y-78.61
X109.07Y-114.4
X109.15Y-72.66
X109.35Y-125.94
X109.38Y-119.44
X109.56Y-137.79
X109.57Y-86.79
X109.59Y-123.05
X109.61Y-132.99
X109.84Y-84.86
X109.85Y-123.75
X109.96Y-144.71
X110.18Y-126.55
X110.22Y-79.74
X110.37Y-133.52
X110.6Y-102.65
X111.32Y-93.85
X111.36Y-132.38
X111.38Y-136.69
X111.46Y-78.36
X111.49Y-70.99
X111.64Y-83.38
X111.69Y-72.66
X111.71Y-130.48
X111.95Y-134.01
X111.974Y-93.857
X112.22Y-126.56
X112.31Y-125.2
X112.36Y-74.85
X112.37Y-94.74
X112.37Y-130.45
X112.72Y-80.18
X112.78Y-101.535
X112.96Y-122.96
X113.06Y-64.93
X113.06Y-67.47
X113.21Y-94.74
X113.35Y-136.68
X113.38Y-129.92
X113.49Y-144.43
X113.52Y-141.31
X113.66Y-53.19
X113.66Y-55.73
X114.39Y-126.68
X114.9Y-74.85
X114.94Y-60.29
X115.26Y-80.18
X115.38Y-126.74
X115.38Y-129.86
X115.38Y-136.66
X115.6Y-64.93
X115.6Y-67.47
X115.64Y-120.2
X115.85Y-92.8
X115.91Y-101.64
X116.14Y-105.9
X116.2Y-53.19
X116.2Y-55.73
X116.21Y-60.29
X116.31Y-98.02
X116.34Y-129.82
X116.38Y-78.36
X116.38Y-130.78
X116.92Y-93.69
X116.93Y-85.58
X117.0Y-130.83
X117.18Y-86.46
X117.35Y-83.59
X117.43Y-144.14
X117.43Y-145.41
X117.55Y-105.9
X117.6Y-101.66
X117.65Y-78.36
X118.14Y-64.93
X118.14Y-67.47
X118.22Y-105.9
X118.35Y-114.7
X118.48Y-93.19
X118.74Y-53.19
X118.74Y-55.73
X119.05Y-101.65
X119.05Y-105.9
X119.1Y-127.17
X119.11Y-129.36
X119.26Y-134.67
X119.36Y-83.52
X119.38Y-137.49
X119.395Y-125.185
X119.41Y-87.23
X119.43Y-60.64
X119.43Y-63.18
X119.54Y-130.05
X119.55Y-80.1
X119.67Y-98.08
X119.8Y-105.9
X119.82Y-92.99
X119.91Y-113.515
X119.97Y-144.14
X119.97Y-145.41
X120.08Y-101.7
X120.47Y-105.9
X120.6Y-102.74
X120.82Y-80.1
X121.1Y-130.84
X121.15Y-105.9
X121.2Y-136.73
X121.33Y-138.5
X121.37Y-93.93
X121.58Y-83.79
X121.59Y-129.6
X121.97Y-60.64
X121.97Y-63.18
X121.97Y-106.6
X122.02Y-105.92
X122.12Y-130.85
X122.35Y-97.9
X122.39Y-136.82
X122.51Y-144.14
X122.51Y-145.41
X122.6Y-106.14
X122.72Y-131.5
X122.77Y-130.88
X122.95Y-141.16
X123.08Y-94.6
X123.27Y-106.16
X123.78Y-93.05
X123.91Y-115.13
X124.44Y-93.05
X124.49Y-96.0
X124.49Y-106.6
X124.51Y-60.64
X124.51Y-63.18
X124.57Y-139.17
X124.7Y-53.68
X124.85Y-56.02
X125.03Y-97.68
X125.08Y-140.19
X125.18Y-95.39
X125.18Y-95.9
X125.28Y-108.12
X125.33Y-85.47
X125.44Y-83.73
X125.48Y-99.81
X125.49Y-79.98
X125.63Y-107.39
X125.81Y-108.47
X125.95Y-140.16
X125.97Y-53.68
X126.12Y-56.02
X126.434Y-85.454
X126.45Y-109.27
X126.74Y-98.92
X126.76Y-79.98
X126.82Y-107.56
X126.83Y-66.57
X126.83Y-72.1
X126.866Y-85.886
X127.23Y-98.37
X127.37Y-132.84
X127.48Y-69.45
X127.75Y-86.15
X127.76Y-99.27
X127.82Y-108.1
X127.91Y-138.98
X128.1Y-66.57
X128.15Y-114.97
X128.16Y-115.52
X128.35Y-126.935
X128.78Y-114.09
X128.85Y-108.14
X129.04Y-76.46
X129.07Y-66.01
X129.07Y-109.32
X129.12Y-98.58
X129.27Y-113.57
X129.315Y-115.115
X129.375Y-72.19
X129.48Y-93.19
X129.67Y-92.52
X129.68Y-96.8
X129.73Y-113.1
X129.92Y-113.85
X130.04Y-93.19
X130.14Y-96.8
X130.17Y-111.49
X130.2Y-110.58
X130.22Y-112.47
X130.41Y-114.75
X130.5Y-113.06
X130.59Y-111.04
X130.6Y-112.01
X130.61Y-75.42
X130.64Y-66.16
X130.67Y-100.11
X130.67Y-100.91
X130.67Y-101.71
X130.67Y-102.51
X130.67Y-103.31
X130.67Y-104.91
X130.67Y-105.71
X130.67Y-106.51
X130.67Y-107.31
X130.67Y-108.11
X131.18Y-76.01
X131.3Y-145.25
X131.47Y-100.11
X131.47Y-100.91
X131.47Y-101.71
X131.47Y-102.51
X131.47Y-103.31
X131.47Y-104.91
X131.47Y-105.71
X131.47Y-106.51
X131.47Y-107.31
X131.47Y-108.11
X131.51Y-134.7
X131.53Y-114.53
X131.77Y-138.0
X131.88Y-145.25
X131.91Y-66.57
X132.06Y-77.0
X132.16Y-114.33
X132.26Y-113.38
X132.27Y-100.11
X132.27Y-100.91
X132.27Y-101.71
X132.27Y-102.51
X132.27Y-103.31
X132.27Y-104.91
X132.27Y-105.71
X132.27Y-106.51
X132.27Y-107.31
X132.27Y-108.11
X132.53Y-58.68
X132.61Y-113.89
X132.88Y-70.0
X133.07Y-100.11
X133.07Y-100.91
X133.07Y-101.71
X133.07Y-102.51
X133.07Y-103.31
X133.07Y-104.91
X133.07Y-105.71
X133.07Y-106.51
X133.07Y-107.31
X133.07Y-108.11
X133.18Y-66.57
X133.41Y-78.09
X133.75Y-129.51
X133.84Y-58.69
X133.84Y-76.37
X133.87Y-100.11
X133.87Y-100.91
X133.87Y-101.71
X133.87Y-102.51
X133.87Y-103.31
X133.87Y-105.71
X133.87Y-107.31
X133.87Y-108.11
X133.91Y-127.87
X134.2Y-133.2
X134.245Y-56.305
X134.26Y-87.2
X134.27Y-86.39
X134.45Y-66.57
X134.45Y-72.042
X134.5Y-83.86
X134.63Y-137.83
X134.68Y-78.09
X134.98Y-57.96
X135.12Y-83.84
X135.34Y-129.78
X135.43Y-129.15
X135.47Y-100.11
X135.47Y-100.91
X135.47Y-101.71
X135.47Y-102.51
X135.47Y-104.91
X135.47Y-105.71
X135.47Y-107.31
X135.47Y-108.11
X135.47Y-108.91
X135.72Y-66.26
X135.77Y-83.86
X135.85Y-131.58
X135.94Y-87.72
X135.94Y-88.84
X136.06Y-128.45
X136.27Y-100.11
X136.27Y-100.91
X136.27Y-101.71
X136.27Y-102.51
X136.27Y-103.31
X136.27Y-104.91
X136.27Y-105.71
X136.27Y-106.51
X136.27Y-107.31
X136.27Y-108.11
X136.318Y-90.33
X136.39Y-83.8
X136.42Y-142.77
X136.42Y-144.04
X136.47Y-127.98
X136.59Y-89.44
X136.673Y-91.55
X137.07Y-100.11
X137.07Y-100.91
X137.07Y-101.71
X137.07Y-102.51
X137.07Y-104.91
X137.07Y-105.71
X137.07Y-106.51
X137.07Y-107.31
X137.07Y-108.11
X137.09Y-88.21
X137.11Y-130.29
X137.17Y-95.19
X137.21Y-148.24
X137.22Y-89.9
X137.44Y-96.17
X137.54Y-112.44
X137.61Y-58.88
X137.62Y-110.94
X137.81Y-97.37
X137.87Y-100.11
X137.87Y-100.91
X137.87Y-101.71
X137.87Y-102.51
X137.87Y-103.31
X137.87Y-104.91
X137.87Y-105.71
X137.87Y-106.51
X137.87Y-107.31
X137.87Y-108.11
X138.03Y-127.39
X138.06Y-117.35
X138.06Y-126.7
X138.12Y-113.26
X138.26Y-95.0
X138.26Y-96.91
X138.27Y-109.78
X138.351Y-91.75
X138.382Y-111.947
X138.39Y-91.13
X138.43Y-97.76
X138.438Y-71.983
X138.54Y-137.82
X138.54Y-139.09
X138.56Y-95.38
X138.67Y-100.11
X138.67Y-100.91
X138.67Y-101.71
X138.67Y-102.51
X138.67Y-103.31
X138.67Y-104.91
X138.67Y-105.71
X138.67Y-106.51
X138.67Y-107.31
X138.67Y-108.11
X138.79Y-122.4
X138.85Y-148.31
X138.96Y-142.77
X138.96Y-144.04
X139.05Y-114.23
X139.18Y-77.84
X139.21Y-120.09
X139.28Y-110.04
X139.37Y-88.22
X139.37Y-89.55
X139.38Y-90.48
X139.39Y-88.79
X139.46Y-123.63
X139.49Y-114.23
X139.53Y-111.83
X139.68Y-112.56
X139.73Y-70.87
X139.74Y-76.43
X140.02Y-57.02
X140.22Y-111.75
X140.23Y-98.53
X140.24Y-124.35
X140.28Y-95.14
X140.35Y-119.83
X140.44Y-87.27
X140.45Y-77.84
X140.64Y-99.47
X140.66Y-98.27
X140.69Y-97.5
X140.695Y-124.875
X140.82Y-119.45
X141.03Y-99.15
X141.05Y-97.03
X141.08Y-137.82
X141.08Y-139.09
X141.38Y-126.09
X141.39Y-89.16
X141.39Y-98.83
X141.5Y-142.77
X141.5Y-144.04
X141.69Y-120.81
X141.84Y-98.45
X142.21Y-113.36
X142.22Y-72.03
X142.29Y-76.91
X142.31Y-98.09
X142.39Y-114.08
X142.51Y-57.91
X142.53Y-124.74
X142.98Y-87.27
X142.99Y-121.9
X143.07Y-114.09
X143.11Y-107.74
X143.34Y-83.77
X143.56Y-108.22
X143.59Y-98.31
X143.63Y-142.47
X143.84Y-107.73
X143.93Y-89.16
X144.06Y-142.923
X144.57Y-55.73
X144.91Y-116.56
X144.92Y-97.99
X145.08Y-108.82
X145.11Y-115.94
X145.21Y-109.81
X145.27Y-89.69
X145.282Y-127.893
X145.37Y-97.75
X145.41Y-87.97
X145.41Y-124.38
X145.49Y-93.37
X145.51Y-75.91
X145.57Y-109.24
X145.65Y-134.5
X145.67Y-121.63
X145.72Y-130.47
X145.72Y-131.74
X145.85Y-115.94
X145.91Y-97.6
X146.058Y-71.983
X146.065Y-93.37
X146.14Y-74.86
X146.2Y-93.95
X146.267Y-94.597
X146.48Y-115.94
X146.6Y-97.33
X146.71Y-118.97
X146.71Y-120.24
X146.73Y-76.33
X146.76Y-93.8
X147.09Y-97.33
X147.15Y-138.76
X147.22Y-116.94
X147.327Y-66.511
X147.332Y-72.13
X147.335Y-93.8
X147.56Y-77.62
X147.57Y-97.33
X147.62Y-78.44
X147.7Y-112.85
X147.81Y-89.69
X147.91Y-93.8
X147.95Y-87.97
X148.01Y-117.67
X148.16Y-122.35
X148.52Y-128.6
X148.59Y-132.77
X148.59Y-137.21
X148.74Y-94.19
X148.75Y-70.77
X148.89Y-78.44
X149.205Y-94.19
X149.24Y-128.82
X149.51Y-83.77
X149.67Y-94.19
X150.15Y-83.84
X150.19Y-133.02
X150.37Y-105.88
X150.61Y-96.95
X150.64Y-55.26
X150.64Y-57.8
X150.79Y-104.93
X150.87Y-83.84
X151.08Y-96.55
X151.18Y-121.44
X151.42Y-104.94
X151.475Y-129.565
X151.48Y-126.28
X151.51Y-83.84
X151.53Y-96.2
X151.68Y-131.806
X152.03Y-96.98
X152.12Y-76.896
X152.14Y-116.93
X152.17Y-77.64
X152.17Y-83.84
X152.3Y-119.23
X152.68Y-93.18
X152.73Y-130.03
X152.75Y-130.7
X152.82Y-116.95
X152.82Y-121.606
X152.85Y-100.26
X152.88Y-65.96
X152.92Y-96.79
X152.96Y-97.69
X153.08Y-69.34
X153.16Y-98.71
X153.18Y-55.26
X153.18Y-57.8
X153.18Y-119.24
X153.185Y-93.18
X153.21Y-91.31
X153.3Y-99.79
X153.33Y-117.3
X153.331Y-133.13
X153.65Y-93.18
X153.77Y-83.8
X153.82Y-106.97
X153.9Y-99.47
X154.01Y-133.01
X154.21Y-69.23
X154.26Y-106.45
X154.38Y-136.73
X154.64Y-107.46
X155.1Y-106.89
X155.12Y-121.72
X155.15Y-120.99
X155.41Y-84.65
X155.54Y-119.4
X155.72Y-55.26
X155.72Y-57.8
X156.13Y-70.17
X156.26Y-104.53
X156.42Y-52.74
X156.42Y-60.65
X156.42Y-63.19
X156.66Y-96.78
X156.67Y-95.86
X156.82Y-114.99
X156.84Y-132.886
X157.0Y-112.1
X157.04Y-93.573
X157.13Y-95.44
X157.17Y-75.91
X157.27Y-104.48
X157.31Y-124.06
X157.44Y-118.47
X157.47Y-115.0
X157.69Y-52.74
X157.76Y-104.1
X157.81Y-88.03
X157.83Y-121.69
X157.95Y-84.65
X158.09Y-91.603
X158.22Y-127.28
X158.23Y-93.3
X158.25Y-129.18
X158.35Y-124.02
X158.385Y-88.03
X158.42Y-106.04
X158.43Y-114.87
X158.5Y-131.22
X158.61Y-117.92
X158.805Y-93.3
X158.96Y-60.65
X158.96Y-63.19
X158.96Y-88.03
X158.99Y-105.38
X159.18Y-77.61
X159.2Y-103.55
X159.42Y-66.48
X159.49Y-104.97
X159.59Y-80.89
X159.75Y-88.04
X159.88Y-83.8
X159.9Y-76.89
X160.03Y-93.42
X160.24Y-103.21
X160.325Y-88.04
X160.35Y-90.54
X160.43Y-131.49
X160.45Y-128.4
X160.49Y-102.8
X160.49Y-109.91
X160.51Y-124.9
X160.55Y-105.37
X160.55Y-106.83
X160.68Y-62.83
X160.73Y-74.99
X160.74Y-103.21
X160.9Y-88.04
X160.925Y-90.54
X160.94Y-84.6
X161.0Y-68.11
X161.25Y-121.95
X161.27Y-89.323
X161.32Y-71.29
X161.35Y-81.36
X161.5Y-60.65
X161.5Y-90.54
X161.7Y-91.8
X161.83Y-52.38
X162.07Y-137.17
X162.48Y-121.37
X162.84Y-131.307
X163.07Y-118.15
X163.48Y-84.6
X163.54Y-68.11
X163.86Y-71.29
X164.18Y-119.75
X164.37Y-52.38
X165.23Y-132.25
X165.25Y-131.33
X165.61Y-89.25
X165.7Y-118.65
X165.72Y-59.16
X165.75Y-122.43
X165.98Y-109.36
X166.36Y-81.4
X166.52Y-99.14
X166.56Y-101.79
X166.667Y-119.617
X166.79Y-106.37
X166.9Y-56.3
X166.93Y-104.98
X167.26Y-67.24
X167.28Y-103.85
X167.55Y-105.71
X167.61Y-117.08
X167.61Y-131.18
X167.61Y-132.45
X167.66Y-109.78
X167.74Y-144.48
X167.74Y-145.75
X168.19Y-103.93
X168.26Y-59.16
X168.26Y-61.7
X168.656Y-147.456
X168.69Y-88.68
X168.86Y-96.61
X168.87Y-137.42
X168.92Y-129.35
X168.98Y-139.43
X168.98Y-140.7
X169.08Y-106.31
X169.18Y-89.05
X169.23Y-118.2
X169.4Y-66.86
X169.77Y-78.01
X169.84Y-110.29
X169.93Y-97.72
X169.964Y-67.48
X169.98Y-123.49
X170.1Y-103.75
X170.1Y-104.36
X170.13Y-96.61
X170.15Y-131.18
X170.15Y-132.45
X170.18Y-87.17
X170.268Y-105.583
X170.268Y-106.192
X170.28Y-144.48
X170.28Y-145.75
X170.39Y-101.79
X170.504Y-102.544
X170.504Y-103.153
X170.56Y-119.34
X170.67Y-87.75
X170.77Y-73.49
X170.8Y-59.16
X170.8Y-61.7
X170.82Y-90.64
X170.824Y-69.24
X170.89Y-55.62
X170.92Y-106.47
X170.92Y-107.08
X171.134Y-69.82
X171.4Y-109.19
X171.429Y-103.736
X171.429Y-106.136
X171.43Y-72.09
X171.48Y-135.5
X171.5Y-104.936
X171.52Y-139.43
X171.52Y-140.7
X171.68Y-90.63
X171.91Y-97.4
X172.14Y-110.74
X172.28Y-75.435
X172.28Y-76.045
X172.42Y-91.78
X172.53Y-100.41
X172.614Y-68.34
X172.625Y-96.272
X172.69Y-131.18
X172.69Y-132.45
X172.694Y-70.91
X172.8Y-90.66
X172.81Y-86.74
X172.82Y-144.48
X172.82Y-145.75
X172.825Y-97.472
X173.03Y-73.49
X173.09Y-122.46
X173.12Y-100.65
X173.43Y-55.62
X173.5Y-77.75
X173.629Y-103.726
X173.629Y-104.926
X173.629Y-106.126
X173.779Y-109.01
X173.87Y-90.06
X173.92Y-76.4
X174.06Y-139.43
X174.06Y-140.7
X174.16Y-85.44
X174.179Y-100.986
X174.2Y-82.8
X174.22Y-118.97
X174.23Y-83.78
X174.26Y-81.682
X174.55Y-117.16
X174.7Y-149.25
X174.89Y-89.88
X174.98Y-58.7
X175.04Y-148.33
X175.086Y-81.42
X175.1Y-124.24
X175.229Y-103.726
X175.229Y-104.926
X175.229Y-106.126
X175.3Y-127.96
X175.3Y-133.8
X175.31Y-65.06
X175.312Y-59.285
X175.312Y-59.895
X175.39Y-88.42
X175.43Y-62.19
X175.43Y-63.13
X175.5Y-63.77
X175.63Y-111.24
X175.696Y-81.42
X175.779Y-100.986
X175.91Y-66.27
X176.0Y-52.51
X176.0Y-55.05
X176.01Y-60.31
X176.04Y-77.75
X176.179Y-101.386
X176.179Y-109.13
X176.263Y-99.481
X176.33Y-137.03
X176.65Y-111.88
X176.76Y-118.97
X176.76Y-137.36
X176.829Y-103.726
X176.829Y-104.926
X176.829Y-106.126
X176.86Y-59.02
X176.984Y-67.4
X177.03Y-87.77
X177.05Y-60.33
X177.08Y-79.95
X177.328Y-86.309
X177.34Y-111.9
X177.36Y-139.88
X177.379Y-101.491
X177.46Y-89.88
X177.524Y-77.79
X177.55Y-78.54
X177.55Y-148.35
X177.61Y-146.289
X177.64Y-96.99
X177.66Y-97.83
X177.77Y-139.41
X177.99Y-111.88
X178.04Y-112.49
X178.24Y-81.73
X178.51Y-57.99
X178.516Y-66.226
X178.54Y-52.51
X178.54Y-55.05
X178.574Y-84.247
X178.574Y-84.856
X178.58Y-102.33
X178.687Y-64.112
X178.687Y-64.722
X178.71Y-76.4
X178.71Y-112.52
X178.904Y-106.111
X178.941Y-65.179
X178.941Y-65.788
X178.964Y-85.285
X178.964Y-85.894
X178.98Y-67.22
X179.05Y-128.84
X179.09Y-86.93
X179.1Y-98.8
X179.1Y-131.11
X179.1Y-133.65
X179.12Y-57.18
X179.14Y-100.95
X179.16Y-113.09
X179.266Y-95.855
X179.266Y-96.465
X179.3Y-122.5
X179.3Y-125.04
X179.31Y-104.936
X179.49Y-89.54
X179.6Y-62.49
X179.61Y-90.64
X179.894Y-77.96
X180.15Y-114.24
X180.16Y-109.96
X180.23Y-106.18
X180.27Y-139.04
X180.28Y-97.09
X180.39Y-128.15
X180.444Y-71.4
X180.625Y-109.405
X180.7Y-74.03
X180.75Y-74.99
X180.89Y-116.36
X180.985Y-114.335
X181.024Y-71.73
X181.04Y-57.48
X181.074Y-63.706
X181.074Y-64.976
X181.074Y-66.246
X181.08Y-52.51
X181.08Y-55.05
X181.22Y-60.25
X181.28Y-111.31
X181.288Y-83.951
X181.288Y-86.237
X181.3Y-72.78
X181.328Y-85.059
X181.47Y-90.3
X181.52Y-137.21
X181.55Y-133.22
X181.58Y-78.55
X181.7Y-131.53
X181.75Y-95.37
X181.77Y-132.48
X181.86Y-114.19
X182.04Y-56.65
X182.094Y-69.8
X182.13Y-71.46
X182.14Y-77.43
X182.24Y-74.53
X182.24Y-132.48
X182.304Y-83.951
X182.304Y-86.237
X182.344Y-63.706
X182.344Y-64.976
X182.344Y-66.246
X182.344Y-85.059
X182.38Y-68.54
X182.55Y-149.061
X182.594Y-61.67
X182.594Y-81.84
X182.6Y-88.14
X182.73Y-130.96
X182.76Y-78.56
X182.79Y-88.85
X182.93Y-106.43
X183.03Y-122.18
X183.094Y-68.24
X183.11Y-126.93
X183.18Y-132.48
X183.32Y-83.951
X183.32Y-86.237
X183.36Y-85.059
X183.41Y-101.97
X183.48Y-79.37
X183.604Y-61.22
X183.614Y-63.706
X183.614Y-64.976
X183.614Y-66.246
X183.83Y-70.91
X183.89Y-127.24
X183.949Y-98.72
X183.96Y-129.77
X183.97Y-105.16
X183.98Y-108.92
X184.03Y-60.26
X184.094Y-89.66
X184.12Y-146.36
X184.15Y-148.53
X184.25Y-59.01
X184.32Y-93.39
X184.42Y-124.24
X184.71Y-81.88
X184.73Y-97.08
X184.782Y-90.58
X184.9Y-87.54
X184.91Y-76.4
X185.08Y-118.52
X185.23Y-89.04
X185.39Y-70.32
X185.43Y-69.24
X185.501Y-111.174
X185.501Y-111.784
X185.506Y-107.364
X185.506Y-107.974
X185.57Y-122.18
X185.59Y-140.98
X185.594Y-103.554
X185.594Y-104.164
X185.62Y-64.726
X185.634Y-99.744
X185.634Y-100.354
X185.7Y-139.15
X185.704Y-84.809
X185.77Y-129.72
X185.82Y-93.96
X186.006Y-61.882
X186.01Y-61.19
X186.02Y-64.226
X186.04Y-90.42
X186.15Y-52.49
X186.15Y-55.03
X186.234Y-84.309
X186.24Y-136.58
X186.402Y-62.278
X186.63Y-128.31
X186.81Y-136.58
X186.9Y-63.65
X187.065Y-61.05
X187.13Y-83.81
X187.13Y-97.09
X187.252Y-58.332
X187.35Y-136.58
X187.42Y-91.85
X187.54Y-92.86
X187.548Y-67.185
X187.62Y-118.52
X187.63Y-79.51
X187.675Y-61.05
X187.684Y-94.914
X187.86Y-129.75
X188.116Y-95.346
X188.129Y-81.09
X188.13Y-140.98
X188.158Y-67.185
X188.19Y-60.58
X188.235Y-88.01
X188.235Y-88.62
X188.254Y-81.721
X188.254Y-82.33
X188.32Y-126.52
X188.56Y-80.659
X188.61Y-78.9
X188.69Y-52.49
X188.69Y-55.03
X188.695Y-69.558
X188.86Y-132.54
X188.94Y-123.19
X189.05Y-86.86
X189.05Y-95.18
X189.07Y-83.67
X189.3Y-67.01
X189.305Y-69.558
X189.7Y-129.72
X190.0Y-92.06
X190.04Y-65.48
X190.11Y-70.47
X190.11Y-74.1
X190.21Y-120.97
X190.35Y-149.1
X190.36Y-99.03
X190.36Y-101.57
X190.4Y-126.49
X190.46Y-57.16
X190.46Y-59.7
X190.59Y-128.2
X190.6Y-61.54
X190.6Y-62.15
X190.63Y-139.06
X190.67Y-140.98
X191.23Y-52.49
X191.23Y-55.03
X191.35Y-88.98
X191.39Y-87.78
X191.511Y-105.18
X191.511Y-107.72
X191.511Y-110.26
X191.511Y-112.8
X191.52Y-81.4
X191.524Y-68.746
X191.581Y-82.679
X191.605Y-67.755
X191.61Y-116.32
X191.704Y-61.949
X191.704Y-82.033
X191.729Y-88.383
X192.21Y-148.62
X192.36Y-77.27
X192.46Y-129.93
X192.883Y-129.93
X192.95Y-131.82
X193.0Y-57.16
X193.0Y-59.7
X193.2Y-73.75
X193.22Y-126.48
X193.302Y-146.323
X193.307Y-129.93
X193.43Y-136.01
X193.55Y-119.16
X193.61Y-131.83
X193.73Y-129.93
X193.96Y-52.54
X193.96Y-55.08
X194.03Y-128.34
X194.051Y-107.72
X194.051Y-110.26
X194.051Y-112.8
X194.3Y-148.05
X194.5Y-121.83
X194.9Y-77.27
X195.02Y-121.81
X195.15Y-68.33
X195.54Y-57.16
X195.54Y-59.7
X195.64Y-122.95
X195.74Y-73.75
X195.76Y-140.82
X195.77Y-136.41
X196.09Y-119.16
X196.38Y-133.55
X196.5Y-52.54
X196.5Y-55.08
X196.82Y-135.15
X196.9Y-133.56
X196.92Y-139.17
X197.045Y-92.055
X197.39Y-133.56
X197.76Y-150.04
X197.92Y-133.56
X198.1Y-123.48
X198.14Y-123.01
X198.3Y-140.82
X199.04Y-52.54
X199.04Y-55.08
X199.21Y-56.06
X200.16Y-148.62
X200.49Y-134.75
X200.515Y-96.672
X200.77Y-129.01
X200.84Y-140.82
X200.93Y-92.51
X201.025Y-95.672
X201.202Y-146.123
X201.23Y-139.1
X201.6Y-115.14
X201.62Y-51.78
X201.62Y-54.1
X202.1Y-147.95
X202.11Y-129.98
X202.18Y-125.97
X202.22Y-118.95
X202.26Y-122.47
X202.28Y-122.94
X202.34Y-88.383
X202.35Y-61.949
X202.36Y-68.299
X202.45Y-136.13
X202.473Y-82.033
X202.618Y-120.895
X202.618Y-121.505
X202.63Y-74.24
X202.966Y-105.764
X203.042Y-101.954
X203.042Y-109.574
X203.119Y-98.144
X203.47Y-134.11
X203.68Y-127.91
X203.87Y-80.2
X204.04Y-132.89
X204.13Y-60.3
X204.14Y-115.14
X204.16Y-51.78
X204.16Y-54.1
X204.32Y-132.58
X204.37Y-126.64
X204.76Y-118.95
X204.79Y-139.5
X205.331Y-146.975
X205.357Y-149.515
X205.52Y-115.98
X206.26Y-134.67
X206.27Y-141.56
X206.34Y-122.24
X206.37Y-129.11
X206.7Y-51.78
X206.7Y-54.1
X207.0Y-146.0
X207.0Y-148.7
X207.32Y-117.72
X208.279Y-96.44
X208.72Y-136.11
X208.81Y-141.56
X208.85Y-134.05
X208.884Y-103.361
X208.884Y-104.113
X209.32Y-134.07
X209.32Y-145.19
X209.43Y-127.96
X209.55Y-51.84
X209.55Y-54.38
X209.86Y-117.72
X210.77Y-129.91
X211.19Y-120.0
X211.22Y-126.61
X211.35Y-141.56
X211.5Y-141.05
X211.56Y-133.61
X211.67Y-119.77
X211.67Y-126.41
X211.67Y-134.2
X211.68Y-134.61
X211.69Y-120.24
X211.71Y-126.87
X211.83Y-141.72
X211.86Y-145.19
X211.865Y-128.661
X211.88Y-143.59
X212.09Y-51.84
X212.09Y-54.38
X213.007Y-148.35
X213.34Y-131.79
X213.38Y-130.74
X213.43Y-129.59
X213.668Y-121.498
X213.738Y-139.13
X213.744Y-124.495
X213.79Y-136.14
X214.348Y-93.692
X214.348Y-145.172
X214.348Y-147.712
X214.63Y-51.84
X214.63Y-54.38
X215.402Y-143.494
X215.72Y-141.2
X216.62Y-136.88
X216.62Y-139.42
X216.888Y-93.692
X216.888Y-145.172
X216.945Y-121.041
X216.945Y-126.121
X219.26Y-75.14
X219.41Y-130.36
X219.428Y-93.692
X219.428Y-142.632
X219.428Y-145.172
X219.464Y-131.798
X219.464Y-134.338
X219.464Y-136.878
X219.464Y-139.418
X219.485Y-118.501
X219.485Y-121.041
X219.485Y-123.581
X219.485Y-126.121
X219.485Y-128.661
T2
X175.17Y-67.5
X198.13Y-119.23
T3
X161.16Y-55.47
X162.43Y-55.47
X163.7Y-55.47
T4
X132.45Y-52.68
X132.45Y-62.84
X134.99Y-52.68
X134.99Y-62.84
X137.53Y-52.68
X137.53Y-62.84
X140.07Y-52.68
X140.07Y-62.84
X142.61Y-52.68
X142.61Y-62.84
X145.15Y-52.68
X145.15Y-62.84
X147.69Y-52.68
X147.69Y-62.84
X205.515Y-58.111
X205.515Y-60.403
X205.515Y-69.541
X205.515Y-71.833
X205.515Y-78.195
X205.515Y-80.487
X205.515Y-89.625
X205.515Y-91.917
X205.538Y-98.024
X205.538Y-100.316
X205.538Y-109.454
X205.538Y-111.746
X210.333Y-62.432
X210.333Y-64.464
X210.333Y-66.496
X210.333Y-68.528
X210.333Y-82.516
X210.333Y-84.548
X210.333Y-86.58
X210.333Y-88.612
X210.356Y-102.345
X210.356Y-104.377
X210.356Y-106.409
X210.356Y-108.441
X212.113Y-61.416
X212.113Y-63.448
X212.113Y-65.48
X212.113Y-67.512
X212.113Y-81.5
X212.113Y-83.532
X212.113Y-85.564
X212.113Y-87.596
X212.136Y-101.329
X212.136Y-103.361
X212.136Y-105.393
X212.136Y-107.425
T5
X78.602Y-82.123
X78.602Y-84.663
X78.602Y-87.203
X78.602Y-89.743
X78.602Y-92.283
X78.602Y-94.823
X78.602Y-97.363
X78.602Y-99.903
X78.602Y-102.443
X78.602Y-104.983
X78.602Y-107.523
X78.602Y-110.063
X78.602Y-112.603
X78.602Y-115.143
X78.602Y-117.683
X78.602Y-120.223
X81.142Y-82.123
X81.142Y-84.663
X81.142Y-87.203
X81.142Y-89.743
X81.142Y-92.283
X81.142Y-94.823
X81.142Y-97.363
X81.142Y-99.903
X81.142Y-102.443
X81.142Y-104.983
X81.142Y-107.523
X81.142Y-110.063
X81.142Y-112.603
X81.142Y-115.143
X81.142Y-117.683
X81.142Y-120.223
X84.163Y-148.342
X84.163Y-150.882
X86.703Y-148.342
X86.703Y-150.882
X89.243Y-148.342
X89.243Y-150.882
X89.6Y-75.34
X89.625Y-72.44
X91.783Y-148.342
X91.783Y-150.882
X92.14Y-75.34
X92.165Y-72.44
X94.323Y-148.342
X94.323Y-150.882
X95.645Y-72.715
X95.645Y-75.255
X96.863Y-148.342
X96.863Y-150.882
X99.403Y-148.342
X99.403Y-150.882
X101.943Y-148.342
X101.943Y-150.882
X104.483Y-148.342
X104.483Y-150.882
X107.023Y-148.342
X107.023Y-150.882
X109.563Y-148.342
X109.563Y-150.882
X112.103Y-148.342
X112.103Y-150.882
X114.643Y-148.342
X114.643Y-150.882
X117.183Y-148.342
X117.183Y-150.882
X119.723Y-148.342
X119.723Y-150.882
X120.93Y-85.685
X122.263Y-148.342
X122.263Y-150.882
X123.47Y-85.685
X124.803Y-148.342
X124.803Y-150.882
X127.343Y-148.342
X127.343Y-150.882
X129.883Y-148.342
X129.883Y-150.882
X132.423Y-148.342
X132.423Y-150.882
X139.245Y-130.78
X139.49Y-117.89
X141.33Y-146.69
X141.33Y-149.23
X141.66Y-91.57
X141.785Y-130.78
X142.03Y-117.89
X142.715Y-140.454
X143.87Y-146.69
X143.87Y-149.23
X144.2Y-91.57
X145.255Y-140.454
X146.41Y-146.69
X146.41Y-149.23
X146.61Y-99.19
X146.74Y-91.57
X147.795Y-140.454
X148.95Y-146.69
X148.95Y-149.23
X149.15Y-99.19
X150.335Y-140.454
X151.49Y-146.69
X151.49Y-149.23
X152.875Y-140.454
X154.03Y-146.69
X154.03Y-149.23
X155.415Y-140.454
X156.57Y-146.69
X156.57Y-149.23
X157.955Y-140.454
X159.11Y-146.69
X159.11Y-149.23
X160.495Y-140.454
X161.65Y-146.69
X161.65Y-149.23
X162.975Y-62.48
X163.035Y-140.454
X164.19Y-146.69
X164.19Y-149.23
X165.515Y-62.48
X165.575Y-140.454
T7
X103.603Y-58.831
X107.413Y-58.831
X111.223Y-58.831
T8
X76.19Y-59.72
X76.19Y-64.8
X76.19Y-72.07
X76.19Y-77.15
X78.73Y-62.26
X78.73Y-74.61
X81.27Y-59.72
X81.27Y-64.8
X81.27Y-72.07
X81.27Y-77.15
T9
X211.093Y-56.842
X211.093Y-73.102
X211.093Y-76.926
X211.093Y-93.186
X211.116Y-96.755
X211.116Y-113.015
T10
X77.592Y-149.44
X77.745Y-53.86
X217.038Y-149.567
X217.318Y-53.758
T3
G00X213.804Y-133.548
M15
G01X212.804Y-133.548
M16
G05
G00X213.804Y-142.189
M15
G01X212.804Y-142.189
M16
G05
G00X213.825Y-118.931
M15
G01X212.825Y-118.931
M16
G05
G00X213.825Y-127.571
M15
G01X212.825Y-127.571
M16
G05
G00X217.834Y-133.548
M15
G01X217.134Y-133.548
M16
G05
G00X217.834Y-142.189
M15
G01X217.134Y-142.189
M16
G05
G00X217.855Y-118.931
M15
G01X217.155Y-118.931
M16
G05
G00X217.855Y-127.571
M15
G01X217.155Y-127.571
M16
G05
T6
G00X167.66Y-135.239
M15
G01X168.46Y-135.239
M16
G05
G00X171.46Y-52.549
M15
G01X172.26Y-52.549
M16
G05
T0
M30
