G04 #@! TF.GenerationSoftware,KiCad,Pcbnew,7.0.9*
G04 #@! TF.CreationDate,2025-03-13T10:23:02+08:00*
G04 #@! TF.ProjectId,HPM5E00EVKRevC,48504d35-4530-4304-9556-4b526576432e,rev?*
G04 #@! TF.SameCoordinates,Original*
G04 #@! TF.FileFunction,Soldermask,Bot*
G04 #@! TF.FilePolarity,Negative*
%FSLAX46Y46*%
G04 Gerber Fmt 4.6, Leading zero omitted, Abs format (unit mm)*
G04 Created by KiCad (PCBNEW 7.0.9) date 2025-03-13 10:23:02*
%MOMM*%
%LPD*%
G01*
G04 APERTURE LIST*
G04 Aperture macros list*
%AMRoundRect*
0 Rectangle with rounded corners*
0 $1 Rounding radius*
0 $2 $3 $4 $5 $6 $7 $8 $9 X,Y pos of 4 corners*
0 Add a 4 corners polygon primitive as box body*
4,1,4,$2,$3,$4,$5,$6,$7,$8,$9,$2,$3,0*
0 Add four circle primitives for the rounded corners*
1,1,$1+$1,$2,$3*
1,1,$1+$1,$4,$5*
1,1,$1+$1,$6,$7*
1,1,$1+$1,$8,$9*
0 Add four rect primitives between the rounded corners*
20,1,$1+$1,$2,$3,$4,$5,0*
20,1,$1+$1,$4,$5,$6,$7,0*
20,1,$1+$1,$6,$7,$8,$9,0*
20,1,$1+$1,$8,$9,$2,$3,0*%
G04 Aperture macros list end*
%ADD10C,1.200000*%
%ADD11R,1.700000X1.700000*%
%ADD12O,1.700000X1.700000*%
%ADD13C,2.401600*%
%ADD14C,4.500000*%
%ADD15C,0.700000*%
%ADD16O,2.101600X1.301600*%
%ADD17C,3.250000*%
%ADD18C,2.642000*%
%ADD19R,1.499000X1.499000*%
%ADD20C,1.499000*%
%ADD21C,1.524000*%
%ADD22RoundRect,0.250000X-0.600000X0.600000X-0.600000X-0.600000X0.600000X-0.600000X0.600000X0.600000X0*%
%ADD23C,1.700000*%
%ADD24RoundRect,0.050800X-1.300500X-0.800100X1.300500X-0.800100X1.300500X0.800100X-1.300500X0.800100X0*%
%ADD25RoundRect,0.250000X0.650000X1.550000X-0.650000X1.550000X-0.650000X-1.550000X0.650000X-1.550000X0*%
%ADD26O,1.800000X3.600000*%
%ADD27R,0.900000X1.600000*%
%ADD28O,0.900000X1.600000*%
%ADD29RoundRect,0.135000X-0.135000X-0.185000X0.135000X-0.185000X0.135000X0.185000X-0.135000X0.185000X0*%
%ADD30RoundRect,0.200000X-0.200000X-0.275000X0.200000X-0.275000X0.200000X0.275000X-0.200000X0.275000X0*%
%ADD31C,0.600000*%
%ADD32O,0.602000X1.971000*%
%ADD33RoundRect,0.250000X-0.312500X-0.625000X0.312500X-0.625000X0.312500X0.625000X-0.312500X0.625000X0*%
%ADD34RoundRect,0.135000X-0.185000X0.135000X-0.185000X-0.135000X0.185000X-0.135000X0.185000X0.135000X0*%
%ADD35RoundRect,0.200000X0.275000X-0.200000X0.275000X0.200000X-0.275000X0.200000X-0.275000X-0.200000X0*%
%ADD36RoundRect,0.135000X0.135000X0.185000X-0.135000X0.185000X-0.135000X-0.185000X0.135000X-0.185000X0*%
%ADD37RoundRect,0.135000X0.185000X-0.135000X0.185000X0.135000X-0.185000X0.135000X-0.185000X-0.135000X0*%
%ADD38RoundRect,0.050800X0.625000X0.350000X-0.625000X0.350000X-0.625000X-0.350000X0.625000X-0.350000X0*%
%ADD39RoundRect,0.250000X0.325000X0.650000X-0.325000X0.650000X-0.325000X-0.650000X0.325000X-0.650000X0*%
%ADD40RoundRect,0.250000X0.625000X-0.312500X0.625000X0.312500X-0.625000X0.312500X-0.625000X-0.312500X0*%
%ADD41RoundRect,0.250000X-0.475000X0.250000X-0.475000X-0.250000X0.475000X-0.250000X0.475000X0.250000X0*%
%ADD42RoundRect,0.250000X0.312500X0.625000X-0.312500X0.625000X-0.312500X-0.625000X0.312500X-0.625000X0*%
%ADD43C,0.950000*%
%ADD44RoundRect,0.250000X-0.325000X-0.650000X0.325000X-0.650000X0.325000X0.650000X-0.325000X0.650000X0*%
%ADD45RoundRect,0.250000X-0.625000X0.312500X-0.625000X-0.312500X0.625000X-0.312500X0.625000X0.312500X0*%
%ADD46R,1.635000X2.160000*%
%ADD47RoundRect,0.200000X0.200000X0.275000X-0.200000X0.275000X-0.200000X-0.275000X0.200000X-0.275000X0*%
%ADD48R,1.016000X0.508000*%
%ADD49O,1.016000X0.508000*%
%ADD50RoundRect,0.250000X0.450000X-0.262500X0.450000X0.262500X-0.450000X0.262500X-0.450000X-0.262500X0*%
%ADD51RoundRect,0.250000X-0.650000X0.325000X-0.650000X-0.325000X0.650000X-0.325000X0.650000X0.325000X0*%
%ADD52C,1.500000*%
%ADD53RoundRect,0.250000X0.475000X-0.250000X0.475000X0.250000X-0.475000X0.250000X-0.475000X-0.250000X0*%
%ADD54RoundRect,0.225000X0.225000X0.375000X-0.225000X0.375000X-0.225000X-0.375000X0.225000X-0.375000X0*%
%ADD55RoundRect,0.150000X-0.650000X-0.150000X0.650000X-0.150000X0.650000X0.150000X-0.650000X0.150000X0*%
%ADD56RoundRect,0.050800X-0.350000X0.625000X-0.350000X-0.625000X0.350000X-0.625000X0.350000X0.625000X0*%
G04 APERTURE END LIST*
D10*
X118733000Y-131792600D03*
X78583000Y-131792600D03*
D11*
X149150000Y-99190000D03*
D12*
X146610000Y-99190000D03*
D13*
X76190000Y-77150000D03*
X76190000Y-72070000D03*
X81270000Y-72070000D03*
X81270000Y-77150000D03*
X78730000Y-74610000D03*
D14*
X217038200Y-149567000D03*
D15*
X213854550Y-126140700D03*
X213854550Y-120360700D03*
D16*
X213324550Y-127571000D03*
X213324650Y-118930800D03*
X217504550Y-127570900D03*
X217504650Y-118930700D03*
D14*
X77744600Y-53859800D03*
D17*
X214653000Y-91405600D03*
X214653000Y-78705600D03*
D18*
X211093000Y-93185600D03*
X211093000Y-76925600D03*
D19*
X212113000Y-81499600D03*
D20*
X210333000Y-82515600D03*
X212113000Y-83531600D03*
X210333000Y-84547600D03*
X212113000Y-85563600D03*
X210333000Y-86579600D03*
X212113000Y-87595600D03*
X210333000Y-88611600D03*
X205515000Y-89624600D03*
X205515000Y-91916600D03*
X205515000Y-78194600D03*
X205515000Y-80486600D03*
D14*
X77592200Y-149440000D03*
D11*
X92140000Y-75340000D03*
D12*
X89600000Y-75340000D03*
D11*
X92165000Y-72440000D03*
D12*
X89625000Y-72440000D03*
D21*
X132450000Y-62840000D03*
X134990000Y-62840000D03*
X137530000Y-62840000D03*
X140070000Y-62840000D03*
X142610000Y-62840000D03*
X145150000Y-62840000D03*
X147690000Y-62840000D03*
X147690000Y-52680000D03*
X145150000Y-52680000D03*
X142610000Y-52680000D03*
X140070000Y-52680000D03*
X137530000Y-52680000D03*
X134990000Y-52680000D03*
X132450000Y-52680000D03*
D22*
X164190000Y-146690000D03*
D23*
X164190000Y-149230000D03*
X161650000Y-146690000D03*
X161650000Y-149230000D03*
X159110000Y-146690000D03*
X159110000Y-149230000D03*
X156570000Y-146690000D03*
X156570000Y-149230000D03*
X154030000Y-146690000D03*
X154030000Y-149230000D03*
X151490000Y-146690000D03*
X151490000Y-149230000D03*
X148950000Y-146690000D03*
X148950000Y-149230000D03*
X146410000Y-146690000D03*
X146410000Y-149230000D03*
X143870000Y-146690000D03*
X143870000Y-149230000D03*
X141330000Y-146690000D03*
X141330000Y-149230000D03*
D11*
X165575200Y-140454400D03*
D12*
X163035200Y-140454400D03*
X160495200Y-140454400D03*
X157955200Y-140454400D03*
X155415200Y-140454400D03*
X152875200Y-140454400D03*
X150335200Y-140454400D03*
X147795200Y-140454400D03*
X145255200Y-140454400D03*
X142715200Y-140454400D03*
D11*
X141660000Y-91570000D03*
D12*
X144200000Y-91570000D03*
X146740000Y-91570000D03*
D15*
X213834100Y-140758599D03*
X213834100Y-134978599D03*
D16*
X213304100Y-142188899D03*
X213304200Y-133548699D03*
X217484100Y-142188799D03*
X217484200Y-133548599D03*
D17*
X214675528Y-111235423D03*
X214675528Y-98535423D03*
D18*
X211115528Y-113015423D03*
X211115528Y-96755423D03*
D19*
X212135528Y-101329423D03*
D20*
X210355528Y-102345423D03*
X212135528Y-103361423D03*
X210355528Y-104377423D03*
X212135528Y-105393423D03*
X210355528Y-106409423D03*
X212135528Y-107425423D03*
X210355528Y-108441423D03*
X205537528Y-98024423D03*
X205537528Y-100316423D03*
X205537528Y-109454423D03*
X205537528Y-111746423D03*
D11*
X142030000Y-117890000D03*
D12*
X139490000Y-117890000D03*
D14*
X217317600Y-53758200D03*
D11*
X132423200Y-148341600D03*
D12*
X132423200Y-150881600D03*
X129883200Y-148341600D03*
X129883200Y-150881600D03*
X127343200Y-148341600D03*
X127343200Y-150881600D03*
X124803200Y-148341600D03*
X124803200Y-150881600D03*
X122263200Y-148341600D03*
X122263200Y-150881600D03*
X119723200Y-148341600D03*
X119723200Y-150881600D03*
X117183200Y-148341600D03*
X117183200Y-150881600D03*
X114643200Y-148341600D03*
X114643200Y-150881600D03*
X112103200Y-148341600D03*
X112103200Y-150881600D03*
X109563200Y-148341600D03*
X109563200Y-150881600D03*
X107023200Y-148341600D03*
X107023200Y-150881600D03*
X104483200Y-148341600D03*
X104483200Y-150881600D03*
X101943200Y-148341600D03*
X101943200Y-150881600D03*
X99403200Y-148341600D03*
X99403200Y-150881600D03*
X96863200Y-148341600D03*
X96863200Y-150881600D03*
X94323200Y-148341600D03*
X94323200Y-150881600D03*
X91783200Y-148341600D03*
X91783200Y-150881600D03*
X89243200Y-148341600D03*
X89243200Y-150881600D03*
X86703200Y-148341600D03*
X86703200Y-150881600D03*
X84163200Y-148341600D03*
X84163200Y-150881600D03*
D11*
X120930000Y-85685000D03*
D12*
X123470000Y-85685000D03*
D24*
X168059675Y-135239025D03*
D17*
X214653000Y-71321820D03*
X214653000Y-58621820D03*
D18*
X211093000Y-73101820D03*
X211093000Y-56841820D03*
D19*
X212113000Y-61415820D03*
D20*
X210333000Y-62431820D03*
X212113000Y-63447820D03*
X210333000Y-64463820D03*
X212113000Y-65479820D03*
X210333000Y-66495820D03*
X212113000Y-67511820D03*
X210333000Y-68527820D03*
X205515000Y-69540820D03*
X205515000Y-71832820D03*
X205515000Y-58110820D03*
X205515000Y-60402820D03*
D11*
X165515000Y-62480000D03*
D12*
X162975000Y-62480000D03*
D11*
X81142200Y-120223400D03*
D12*
X78602200Y-120223400D03*
X81142200Y-117683400D03*
X78602200Y-117683400D03*
X81142200Y-115143400D03*
X78602200Y-115143400D03*
X81142200Y-112603400D03*
X78602200Y-112603400D03*
X81142200Y-110063400D03*
X78602200Y-110063400D03*
X81142200Y-107523400D03*
X78602200Y-107523400D03*
X81142200Y-104983400D03*
X78602200Y-104983400D03*
X81142200Y-102443400D03*
X78602200Y-102443400D03*
X81142200Y-99903400D03*
X78602200Y-99903400D03*
X81142200Y-97363400D03*
X78602200Y-97363400D03*
X81142200Y-94823400D03*
X78602200Y-94823400D03*
X81142200Y-92283400D03*
X78602200Y-92283400D03*
X81142200Y-89743400D03*
X78602200Y-89743400D03*
X81142200Y-87203400D03*
X78602200Y-87203400D03*
X81142200Y-84663400D03*
X78602200Y-84663400D03*
X81142200Y-82123400D03*
X78602200Y-82123400D03*
D25*
X111223100Y-58830800D03*
D26*
X107413100Y-58830800D03*
X103603100Y-58830800D03*
D11*
X141785000Y-130780000D03*
D12*
X139245000Y-130780000D03*
D24*
X171859675Y-52549025D03*
D11*
X95645000Y-75255000D03*
D12*
X95645000Y-72715000D03*
D27*
X161160000Y-55470000D03*
D28*
X162430000Y-55470000D03*
X163700000Y-55470000D03*
D13*
X76190000Y-64800000D03*
X76190000Y-59720000D03*
X81270000Y-59720000D03*
X81270000Y-64800000D03*
X78730000Y-62260000D03*
D29*
X188510000Y-61310000D03*
X189530000Y-61310000D03*
D30*
X205839200Y-86405580D03*
X207489200Y-86405580D03*
D31*
X164542200Y-137243400D03*
X164542200Y-138203400D03*
X159542200Y-137223400D03*
X159542200Y-138183400D03*
D32*
X126835000Y-67914000D03*
X128105000Y-67914000D03*
X129375000Y-67914000D03*
X130645000Y-67914000D03*
X131915000Y-67914000D03*
X133185000Y-67914000D03*
X134455000Y-67914000D03*
X135725000Y-67914000D03*
X135725000Y-73386000D03*
X134455000Y-73386000D03*
X133185000Y-73386000D03*
X131915000Y-73386000D03*
X130645000Y-73386000D03*
X129375000Y-73386000D03*
X128105000Y-73386000D03*
X126835000Y-73386000D03*
D33*
X215812500Y-116690000D03*
X218737500Y-116690000D03*
D34*
X144860000Y-75390000D03*
X144860000Y-76410000D03*
D31*
X160880000Y-129760000D03*
X161840000Y-129760000D03*
X135340000Y-106640000D03*
X134380000Y-106640000D03*
X159400000Y-65950000D03*
X159400000Y-64990000D03*
D35*
X111410000Y-97024998D03*
X111410000Y-95374998D03*
D36*
X80330000Y-138990000D03*
X79310000Y-138990000D03*
D37*
X145255200Y-138237400D03*
X145255200Y-137217400D03*
D34*
X142520000Y-59860000D03*
X142520000Y-60880000D03*
D37*
X151770000Y-65310000D03*
X151770000Y-64290000D03*
D34*
X134910000Y-54950000D03*
X134910000Y-55970000D03*
D31*
X137860000Y-87980000D03*
X138820000Y-87980000D03*
D34*
X160740000Y-75540000D03*
X160740000Y-76560000D03*
D31*
X107600000Y-64950000D03*
X107600000Y-63990000D03*
D34*
X154404200Y-137217400D03*
X154404200Y-138237400D03*
D38*
X214858550Y-124002400D03*
X214858550Y-122102400D03*
X216858550Y-123052400D03*
D37*
X170170000Y-86620000D03*
X170170000Y-85600000D03*
D31*
X136960000Y-96890000D03*
X136000000Y-96890000D03*
X146280000Y-137210000D03*
X146280000Y-138170000D03*
X176170000Y-102150000D03*
X176170000Y-103110000D03*
D34*
X172120000Y-108300000D03*
X172120000Y-109320000D03*
X139210000Y-75410000D03*
X139210000Y-76430000D03*
D31*
X137100000Y-104240000D03*
X138060000Y-104240000D03*
D30*
X200413928Y-109548600D03*
X202063928Y-109548600D03*
D34*
X157370000Y-122320000D03*
X157370000Y-123340000D03*
D39*
X218750000Y-114240000D03*
X215800000Y-114240000D03*
D30*
X176645000Y-68320000D03*
X178295000Y-68320000D03*
D29*
X190030000Y-81560000D03*
X191050000Y-81560000D03*
D39*
X219275000Y-74060000D03*
X216325000Y-74060000D03*
D40*
X104300000Y-65172500D03*
X104300000Y-62247500D03*
D34*
X172410000Y-92480000D03*
X172410000Y-93500000D03*
D37*
X141780000Y-133590000D03*
X141780000Y-132570000D03*
D36*
X202734728Y-95671600D03*
X201714728Y-95671600D03*
D41*
X152990000Y-90470000D03*
X152990000Y-92370000D03*
D31*
X132860000Y-98950000D03*
X132860000Y-97990000D03*
D37*
X150730000Y-65330000D03*
X150730000Y-64310000D03*
D31*
X130190000Y-98370000D03*
X130190000Y-97410000D03*
X125850000Y-75170000D03*
X125850000Y-76130000D03*
D29*
X189870000Y-68710000D03*
X190890000Y-68710000D03*
D32*
X138442500Y-67854750D03*
X139712500Y-67854750D03*
X140982500Y-67854750D03*
X142252500Y-67854750D03*
X143522500Y-67854750D03*
X144792500Y-67854750D03*
X146062500Y-67854750D03*
X147332500Y-67854750D03*
X147332500Y-73326750D03*
X146062500Y-73326750D03*
X144792500Y-73326750D03*
X143522500Y-73326750D03*
X142252500Y-73326750D03*
X140982500Y-73326750D03*
X139712500Y-73326750D03*
X138442500Y-73326750D03*
D36*
X80330000Y-138105000D03*
X79310000Y-138105000D03*
D31*
X136000000Y-95980000D03*
X136960000Y-95980000D03*
D30*
X200399728Y-105871600D03*
X202049728Y-105871600D03*
D31*
X137860000Y-89600000D03*
X138820000Y-89600000D03*
D37*
X160495200Y-138237400D03*
X160495200Y-137217400D03*
D31*
X134720000Y-104930000D03*
X134720000Y-105890000D03*
D37*
X171720000Y-90010000D03*
X171720000Y-88990000D03*
D34*
X158110000Y-75530000D03*
X158110000Y-76550000D03*
D31*
X139690000Y-101960000D03*
X140650000Y-101960000D03*
D34*
X143580000Y-75390000D03*
X143580000Y-76410000D03*
D42*
X219222500Y-76270000D03*
X216297500Y-76270000D03*
D34*
X137630000Y-59860000D03*
X137630000Y-60880000D03*
X159450000Y-75520000D03*
X159450000Y-76540000D03*
D37*
X158700000Y-92623100D03*
X158700000Y-91603100D03*
D36*
X148590000Y-131181157D03*
X147570000Y-131181157D03*
D34*
X149324200Y-137217400D03*
X149324200Y-138237400D03*
X169840000Y-108290000D03*
X169840000Y-109310000D03*
D29*
X189870000Y-67810000D03*
X190890000Y-67810000D03*
D34*
X110180000Y-95590296D03*
X110180000Y-96610296D03*
D31*
X184134000Y-147050000D03*
X184134000Y-148010000D03*
X160890000Y-128815600D03*
X161850000Y-128815600D03*
D36*
X200534728Y-95671600D03*
X199514728Y-95671600D03*
D31*
X151312200Y-137233400D03*
X151312200Y-138193400D03*
D43*
X169105000Y-107060000D03*
X167555000Y-107060000D03*
D34*
X140190000Y-75410000D03*
X140190000Y-76430000D03*
X139990000Y-59860000D03*
X139990000Y-60880000D03*
D44*
X200305000Y-75800000D03*
X203255000Y-75800000D03*
D31*
X118780000Y-86410000D03*
X117820000Y-86410000D03*
D36*
X215970000Y-125240000D03*
X214950000Y-125240000D03*
D34*
X168716000Y-108280000D03*
X168716000Y-109300000D03*
D29*
X205964200Y-149540400D03*
X206984200Y-149540400D03*
D34*
X161516200Y-137217400D03*
X161516200Y-138237400D03*
D37*
X176650000Y-148360000D03*
X176650000Y-147340000D03*
D31*
X139670000Y-102880000D03*
X140630000Y-102880000D03*
D43*
X177420000Y-100685000D03*
X177420000Y-99135000D03*
X87885000Y-95390000D03*
X86335000Y-95390000D03*
X112873000Y-97004998D03*
X112873000Y-95454998D03*
D34*
X174890000Y-90630000D03*
X174890000Y-91650000D03*
D31*
X182650000Y-77480000D03*
X183610000Y-77480000D03*
X134800000Y-95990000D03*
X133840000Y-95990000D03*
X193320000Y-81950000D03*
X192360000Y-81950000D03*
X158310000Y-123300000D03*
X158310000Y-122340000D03*
D37*
X141190000Y-76410000D03*
X141190000Y-75390000D03*
D31*
X193550000Y-61990000D03*
X192590000Y-61990000D03*
D37*
X170820000Y-90010000D03*
X170820000Y-88990000D03*
D31*
X137860000Y-88790000D03*
X138820000Y-88790000D03*
X142630000Y-95170000D03*
X143590000Y-95170000D03*
D34*
X137400000Y-54950000D03*
X137400000Y-55970000D03*
D37*
X171150000Y-86620000D03*
X171150000Y-85600000D03*
D31*
X156402200Y-137227400D03*
X156402200Y-138187400D03*
D30*
X199990000Y-68300000D03*
X201640000Y-68300000D03*
D31*
X178326528Y-106111423D03*
X177366528Y-106111423D03*
X154130000Y-133510000D03*
X154130000Y-134470000D03*
D29*
X117810000Y-85460000D03*
X118830000Y-85460000D03*
D31*
X161190000Y-124800000D03*
X162150000Y-124800000D03*
D29*
X188510000Y-62380000D03*
X189530000Y-62380000D03*
D31*
X150990000Y-126750000D03*
X150030000Y-126750000D03*
D34*
X160650000Y-91600000D03*
X160650000Y-92620000D03*
D30*
X200399728Y-98071600D03*
X202049728Y-98071600D03*
X200399728Y-101871600D03*
X202049728Y-101871600D03*
D31*
X133420000Y-109010000D03*
X133420000Y-109970000D03*
X137310000Y-109050000D03*
X137310000Y-110010000D03*
X172018528Y-104886423D03*
X172978528Y-104886423D03*
D30*
X205839200Y-64289800D03*
X207489200Y-64289800D03*
D31*
X156880000Y-133575600D03*
X156880000Y-134535600D03*
X159680000Y-91620000D03*
X159680000Y-92580000D03*
X137280000Y-99170000D03*
X137280000Y-98210000D03*
D45*
X207810000Y-52157500D03*
X207810000Y-55082500D03*
D31*
X155480000Y-94560000D03*
X156440000Y-94560000D03*
D34*
X167700000Y-108280000D03*
X167700000Y-109300000D03*
D37*
X169180000Y-87650000D03*
X169180000Y-86630000D03*
D31*
X139640000Y-103760000D03*
X140600000Y-103760000D03*
X200100000Y-146970000D03*
X200100000Y-147930000D03*
D34*
X173950000Y-90630000D03*
X173950000Y-91650000D03*
D31*
X118563000Y-97059998D03*
X118563000Y-96099998D03*
D37*
X201116000Y-147960000D03*
X201116000Y-146940000D03*
D34*
X133330000Y-75430000D03*
X133330000Y-76450000D03*
D37*
X184640000Y-88990000D03*
X184640000Y-87970000D03*
X170870000Y-109290000D03*
X170870000Y-108270000D03*
D34*
X134900000Y-59860000D03*
X134900000Y-60880000D03*
D46*
X155776900Y-88203100D03*
X153440900Y-88203100D03*
D37*
X184240000Y-95000000D03*
X184240000Y-93980000D03*
D29*
X207258728Y-110767800D03*
X208278728Y-110767800D03*
D37*
X185550000Y-90800000D03*
X185550000Y-89780000D03*
D31*
X133740000Y-98950000D03*
X133740000Y-97990000D03*
X132460000Y-109970000D03*
X132460000Y-109010000D03*
D41*
X151140000Y-90540000D03*
X151140000Y-92440000D03*
D34*
X132060000Y-75430000D03*
X132060000Y-76450000D03*
D30*
X205839200Y-84373580D03*
X207489200Y-84373580D03*
D31*
X175816528Y-100266423D03*
X175816528Y-99306423D03*
D37*
X165575200Y-138237400D03*
X165575200Y-137217400D03*
X185150000Y-148060000D03*
X185150000Y-147040000D03*
D36*
X141840000Y-95170000D03*
X140820000Y-95170000D03*
X208276728Y-111783800D03*
X207256728Y-111783800D03*
D33*
X214405000Y-129580000D03*
X217330000Y-129580000D03*
D31*
X160940000Y-131805600D03*
X161900000Y-131805600D03*
D47*
X125765000Y-96990000D03*
X124115000Y-96990000D03*
D37*
X179610000Y-112340000D03*
X179610000Y-111320000D03*
D47*
X146895000Y-95700000D03*
X145245000Y-95700000D03*
D36*
X156488900Y-93573100D03*
X155468900Y-93573100D03*
D29*
X140680000Y-113360000D03*
X141700000Y-113360000D03*
D31*
X138150000Y-99170000D03*
X138150000Y-98210000D03*
D29*
X214428100Y-136150299D03*
X215448100Y-136150299D03*
D39*
X213040000Y-115950000D03*
X210090000Y-115950000D03*
D34*
X145210000Y-54745000D03*
X145210000Y-55765000D03*
D31*
X192640000Y-88310000D03*
X193600000Y-88310000D03*
D48*
X114693000Y-97009998D03*
D49*
X114693000Y-96059988D03*
X114693000Y-95110002D03*
X117487000Y-95110002D03*
X117487000Y-97009998D03*
D50*
X149340000Y-92352500D03*
X149340000Y-90527500D03*
D44*
X200010000Y-59740000D03*
X202960000Y-59740000D03*
D36*
X148590000Y-132140000D03*
X147570000Y-132140000D03*
D31*
X83590000Y-117610000D03*
X84550000Y-117610000D03*
D34*
X132520000Y-59860000D03*
X132520000Y-60880000D03*
D29*
X214528100Y-139150299D03*
X215548100Y-139150299D03*
D45*
X110330000Y-62227500D03*
X110330000Y-65152500D03*
D31*
X140600000Y-100990000D03*
X139640000Y-100990000D03*
X128980000Y-97830000D03*
X128980000Y-96870000D03*
D43*
X119763000Y-96979998D03*
X119763000Y-95429998D03*
D31*
X128080000Y-97830000D03*
X128080000Y-96870000D03*
D34*
X146180000Y-75370000D03*
X146180000Y-76390000D03*
D31*
X126830000Y-75160000D03*
X126830000Y-76120000D03*
X173778528Y-108566423D03*
X173778528Y-107606423D03*
X194610000Y-68310000D03*
X193650000Y-68310000D03*
X138970000Y-99170000D03*
X138970000Y-98210000D03*
D51*
X205240000Y-52125000D03*
X205240000Y-55075000D03*
D36*
X80330000Y-137220000D03*
X79310000Y-137220000D03*
D52*
X214395000Y-131660000D03*
X217345000Y-131660000D03*
D47*
X181515000Y-77430000D03*
X179865000Y-77430000D03*
D31*
X149290000Y-89140000D03*
X150250000Y-89140000D03*
D30*
X200085000Y-88390000D03*
X201735000Y-88390000D03*
D37*
X155415200Y-138237400D03*
X155415200Y-137217400D03*
D29*
X189750000Y-87970000D03*
X190770000Y-87970000D03*
D31*
X158528900Y-90523100D03*
X159488900Y-90523100D03*
X172148528Y-106136423D03*
X173108528Y-106136423D03*
X138140000Y-75360000D03*
X138140000Y-76320000D03*
X175650000Y-147370000D03*
X175650000Y-148330000D03*
D53*
X158330000Y-89200000D03*
X158330000Y-87300000D03*
D31*
X136430000Y-110000000D03*
X136430000Y-109040000D03*
X192250000Y-147020000D03*
X192250000Y-147980000D03*
X175550000Y-68330000D03*
X175550000Y-69290000D03*
X172148528Y-103736423D03*
X173108528Y-103736423D03*
D32*
X159425000Y-73336000D03*
X158155000Y-73336000D03*
X156885000Y-73336000D03*
X155615000Y-73336000D03*
X154345000Y-73336000D03*
X153075000Y-73336000D03*
X151805000Y-73336000D03*
X150535000Y-73336000D03*
X150535000Y-67864000D03*
X151805000Y-67864000D03*
X153075000Y-67864000D03*
X154345000Y-67864000D03*
X155615000Y-67864000D03*
X156885000Y-67864000D03*
X158155000Y-67864000D03*
X159425000Y-67864000D03*
D37*
X167917000Y-148475600D03*
X167917000Y-147455600D03*
D31*
X174178528Y-100205800D03*
X174178528Y-99245800D03*
D36*
X148590000Y-130165157D03*
X147570000Y-130165157D03*
D29*
X190030000Y-82450000D03*
X191050000Y-82450000D03*
D31*
X135570000Y-104090000D03*
X135570000Y-103130000D03*
X148720000Y-111990000D03*
X147760000Y-111990000D03*
D29*
X189750000Y-88940000D03*
X190770000Y-88940000D03*
D48*
X154590000Y-92442799D03*
D49*
X154590000Y-91492789D03*
X154590000Y-90542803D03*
X157384000Y-90542803D03*
X157384000Y-92442799D03*
D34*
X129820000Y-75470000D03*
X129820000Y-76490000D03*
D31*
X137230000Y-75370000D03*
X137230000Y-76330000D03*
D37*
X149520000Y-76430000D03*
X149520000Y-75410000D03*
D54*
X88230000Y-97340000D03*
X84930000Y-97340000D03*
D31*
X83590000Y-115180000D03*
X84550000Y-115180000D03*
D55*
X141320000Y-110495000D03*
X141320000Y-109225000D03*
X141320000Y-107955000D03*
X141320000Y-106685000D03*
X148520000Y-106685000D03*
X148520000Y-107955000D03*
X148520000Y-109225000D03*
X148520000Y-110495000D03*
D31*
X151160000Y-131825600D03*
X150200000Y-131825600D03*
D44*
X205675000Y-75780000D03*
X208625000Y-75780000D03*
D29*
X205964200Y-147000400D03*
X206984200Y-147000400D03*
D53*
X160240000Y-89230000D03*
X160240000Y-87330000D03*
D31*
X177630000Y-102140000D03*
X177630000Y-103100000D03*
D30*
X134655000Y-98960000D03*
X136305000Y-98960000D03*
D31*
X176178528Y-108616423D03*
X176178528Y-107656423D03*
D30*
X205839200Y-66321800D03*
X207489200Y-66321800D03*
D36*
X148590000Y-129200000D03*
X147570000Y-129200000D03*
D37*
X150335200Y-138237400D03*
X150335200Y-137217400D03*
D31*
X139610000Y-100170000D03*
X140570000Y-100170000D03*
X131130000Y-98370000D03*
X131130000Y-97410000D03*
D36*
X186870000Y-93270000D03*
X185850000Y-93270000D03*
D30*
X200165000Y-82040000D03*
X201815000Y-82040000D03*
D36*
X215920000Y-120820000D03*
X214900000Y-120820000D03*
D56*
X107860000Y-55280000D03*
X105960000Y-55280000D03*
X106910000Y-53280000D03*
D37*
X193266000Y-148030000D03*
X193266000Y-147010000D03*
X168230000Y-87650000D03*
X168230000Y-86630000D03*
X128220000Y-76510000D03*
X128220000Y-75490000D03*
D31*
X133070000Y-104100000D03*
X132110000Y-104100000D03*
X137860000Y-90410000D03*
X138820000Y-90410000D03*
D37*
X184000000Y-91780000D03*
X184000000Y-90760000D03*
D31*
X83590000Y-120250000D03*
X84550000Y-120250000D03*
D30*
X200130000Y-61930000D03*
X201780000Y-61930000D03*
D39*
X203428000Y-56822200D03*
X200478000Y-56822200D03*
D31*
X134790000Y-96910000D03*
X133830000Y-96910000D03*
M02*
