G04 #@! TF.GenerationSoftware,KiCad,Pcbnew,7.0.9*
G04 #@! TF.CreationDate,2025-03-13T10:23:01+08:00*
G04 #@! TF.ProjectId,HPM5E00EVKRevC,48504d35-4530-4304-9556-4b526576432e,rev?*
G04 #@! TF.SameCoordinates,Original*
G04 #@! TF.FileFunction,Paste,Bot*
G04 #@! TF.FilePolarity,Positive*
%FSLAX46Y46*%
G04 Gerber Fmt 4.6, Leading zero omitted, Abs format (unit mm)*
G04 Created by KiCad (PCBNEW 7.0.9) date 2025-03-13 10:23:01*
%MOMM*%
%LPD*%
G01*
G04 APERTURE LIST*
G04 Aperture macros list*
%AMRoundRect*
0 Rectangle with rounded corners*
0 $1 Rounding radius*
0 $2 $3 $4 $5 $6 $7 $8 $9 X,Y pos of 4 corners*
0 Add a 4 corners polygon primitive as box body*
4,1,4,$2,$3,$4,$5,$6,$7,$8,$9,$2,$3,0*
0 Add four circle primitives for the rounded corners*
1,1,$1+$1,$2,$3*
1,1,$1+$1,$4,$5*
1,1,$1+$1,$6,$7*
1,1,$1+$1,$8,$9*
0 Add four rect primitives between the rounded corners*
20,1,$1+$1,$2,$3,$4,$5,0*
20,1,$1+$1,$4,$5,$6,$7,0*
20,1,$1+$1,$6,$7,$8,$9,0*
20,1,$1+$1,$8,$9,$2,$3,0*%
G04 Aperture macros list end*
%ADD10C,0.120000*%
%ADD11RoundRect,0.135000X-0.135000X-0.185000X0.135000X-0.185000X0.135000X0.185000X-0.135000X0.185000X0*%
%ADD12RoundRect,0.200000X-0.200000X-0.275000X0.200000X-0.275000X0.200000X0.275000X-0.200000X0.275000X0*%
%ADD13C,0.600000*%
%ADD14O,0.602000X1.971000*%
%ADD15RoundRect,0.250000X-0.312500X-0.625000X0.312500X-0.625000X0.312500X0.625000X-0.312500X0.625000X0*%
%ADD16RoundRect,0.135000X-0.185000X0.135000X-0.185000X-0.135000X0.185000X-0.135000X0.185000X0.135000X0*%
%ADD17RoundRect,0.200000X0.275000X-0.200000X0.275000X0.200000X-0.275000X0.200000X-0.275000X-0.200000X0*%
%ADD18RoundRect,0.135000X0.135000X0.185000X-0.135000X0.185000X-0.135000X-0.185000X0.135000X-0.185000X0*%
%ADD19RoundRect,0.135000X0.185000X-0.135000X0.185000X0.135000X-0.185000X0.135000X-0.185000X-0.135000X0*%
%ADD20RoundRect,0.050800X0.625000X0.350000X-0.625000X0.350000X-0.625000X-0.350000X0.625000X-0.350000X0*%
%ADD21RoundRect,0.250000X0.325000X0.650000X-0.325000X0.650000X-0.325000X-0.650000X0.325000X-0.650000X0*%
%ADD22RoundRect,0.250000X0.625000X-0.312500X0.625000X0.312500X-0.625000X0.312500X-0.625000X-0.312500X0*%
%ADD23RoundRect,0.250000X-0.475000X0.250000X-0.475000X-0.250000X0.475000X-0.250000X0.475000X0.250000X0*%
%ADD24RoundRect,0.250000X0.312500X0.625000X-0.312500X0.625000X-0.312500X-0.625000X0.312500X-0.625000X0*%
%ADD25C,0.950000*%
%ADD26RoundRect,0.250000X-0.325000X-0.650000X0.325000X-0.650000X0.325000X0.650000X-0.325000X0.650000X0*%
%ADD27RoundRect,0.250000X-0.625000X0.312500X-0.625000X-0.312500X0.625000X-0.312500X0.625000X0.312500X0*%
%ADD28R,1.635000X2.160000*%
%ADD29RoundRect,0.200000X0.200000X0.275000X-0.200000X0.275000X-0.200000X-0.275000X0.200000X-0.275000X0*%
%ADD30R,1.016000X0.508000*%
%ADD31O,1.016000X0.508000*%
%ADD32RoundRect,0.250000X0.450000X-0.262500X0.450000X0.262500X-0.450000X0.262500X-0.450000X-0.262500X0*%
%ADD33RoundRect,0.250000X-0.650000X0.325000X-0.650000X-0.325000X0.650000X-0.325000X0.650000X0.325000X0*%
%ADD34C,1.500000*%
%ADD35RoundRect,0.250000X0.475000X-0.250000X0.475000X0.250000X-0.475000X0.250000X-0.475000X-0.250000X0*%
%ADD36RoundRect,0.225000X0.225000X0.375000X-0.225000X0.375000X-0.225000X-0.375000X0.225000X-0.375000X0*%
%ADD37RoundRect,0.150000X-0.650000X-0.150000X0.650000X-0.150000X0.650000X0.150000X-0.650000X0.150000X0*%
%ADD38RoundRect,0.050800X-0.350000X0.625000X-0.350000X-0.625000X0.350000X-0.625000X0.350000X0.625000X0*%
G04 APERTURE END LIST*
D10*
X156593900Y-87223100D02*
X156593900Y-89183100D01*
X156493900Y-89283100D01*
X155023900Y-89283100D01*
X154923900Y-89183100D01*
X154923900Y-88670100D01*
X155023900Y-88570100D01*
X155414900Y-88570100D01*
X155514900Y-88470100D01*
X155514900Y-87936100D01*
X155414900Y-87836100D01*
X155023900Y-87836100D01*
X154923900Y-87736100D01*
X154923900Y-87223100D01*
X155023900Y-87123100D01*
X156493900Y-87123100D01*
X156593900Y-87223100D01*
G36*
X156593900Y-87223100D02*
G01*
X156593900Y-89183100D01*
X156493900Y-89283100D01*
X155023900Y-89283100D01*
X154923900Y-89183100D01*
X154923900Y-88670100D01*
X155023900Y-88570100D01*
X155414900Y-88570100D01*
X155514900Y-88470100D01*
X155514900Y-87936100D01*
X155414900Y-87836100D01*
X155023900Y-87836100D01*
X154923900Y-87736100D01*
X154923900Y-87223100D01*
X155023900Y-87123100D01*
X156493900Y-87123100D01*
X156593900Y-87223100D01*
G37*
X154293900Y-87223100D02*
X154293900Y-87736100D01*
X154193900Y-87836100D01*
X153802900Y-87836100D01*
X153702900Y-87936100D01*
X153702900Y-88470100D01*
X153802900Y-88570100D01*
X154193900Y-88570100D01*
X154293900Y-88670100D01*
X154293900Y-89183100D01*
X154193900Y-89283100D01*
X152723900Y-89283100D01*
X152623900Y-89183100D01*
X152623900Y-87223100D01*
X152723900Y-87123100D01*
X154193900Y-87123100D01*
X154293900Y-87223100D01*
G36*
X154293900Y-87223100D02*
G01*
X154293900Y-87736100D01*
X154193900Y-87836100D01*
X153802900Y-87836100D01*
X153702900Y-87936100D01*
X153702900Y-88470100D01*
X153802900Y-88570100D01*
X154193900Y-88570100D01*
X154293900Y-88670100D01*
X154293900Y-89183100D01*
X154193900Y-89283100D01*
X152723900Y-89283100D01*
X152623900Y-89183100D01*
X152623900Y-87223100D01*
X152723900Y-87123100D01*
X154193900Y-87123100D01*
X154293900Y-87223100D01*
G37*
D11*
X188510000Y-61310000D03*
X189530000Y-61310000D03*
D12*
X205839200Y-86405580D03*
X207489200Y-86405580D03*
D13*
X164542200Y-137243400D03*
X164542200Y-138203400D03*
X159542200Y-137223400D03*
X159542200Y-138183400D03*
D14*
X126835000Y-67914000D03*
X128105000Y-67914000D03*
X129375000Y-67914000D03*
X130645000Y-67914000D03*
X131915000Y-67914000D03*
X133185000Y-67914000D03*
X134455000Y-67914000D03*
X135725000Y-67914000D03*
X135725000Y-73386000D03*
X134455000Y-73386000D03*
X133185000Y-73386000D03*
X131915000Y-73386000D03*
X130645000Y-73386000D03*
X129375000Y-73386000D03*
X128105000Y-73386000D03*
X126835000Y-73386000D03*
D15*
X215812500Y-116690000D03*
X218737500Y-116690000D03*
D16*
X144860000Y-75390000D03*
X144860000Y-76410000D03*
D13*
X160880000Y-129760000D03*
X161840000Y-129760000D03*
X135340000Y-106640000D03*
X134380000Y-106640000D03*
X159400000Y-65950000D03*
X159400000Y-64990000D03*
D17*
X111410000Y-97024998D03*
X111410000Y-95374998D03*
D18*
X80330000Y-138990000D03*
X79310000Y-138990000D03*
D19*
X145255200Y-138237400D03*
X145255200Y-137217400D03*
D16*
X142520000Y-59860000D03*
X142520000Y-60880000D03*
D19*
X151770000Y-65310000D03*
X151770000Y-64290000D03*
D16*
X134910000Y-54950000D03*
X134910000Y-55970000D03*
D13*
X137860000Y-87980000D03*
X138820000Y-87980000D03*
D16*
X160740000Y-75540000D03*
X160740000Y-76560000D03*
D13*
X107600000Y-64950000D03*
X107600000Y-63990000D03*
D16*
X154404200Y-137217400D03*
X154404200Y-138237400D03*
D20*
X214858550Y-124002400D03*
X214858550Y-122102400D03*
X216858550Y-123052400D03*
D19*
X170170000Y-86620000D03*
X170170000Y-85600000D03*
D13*
X136960000Y-96890000D03*
X136000000Y-96890000D03*
X146280000Y-137210000D03*
X146280000Y-138170000D03*
X176170000Y-102150000D03*
X176170000Y-103110000D03*
D16*
X172120000Y-108300000D03*
X172120000Y-109320000D03*
X139210000Y-75410000D03*
X139210000Y-76430000D03*
D13*
X137100000Y-104240000D03*
X138060000Y-104240000D03*
D12*
X200413928Y-109548600D03*
X202063928Y-109548600D03*
D16*
X157370000Y-122320000D03*
X157370000Y-123340000D03*
D21*
X218750000Y-114240000D03*
X215800000Y-114240000D03*
D12*
X176645000Y-68320000D03*
X178295000Y-68320000D03*
D11*
X190030000Y-81560000D03*
X191050000Y-81560000D03*
D21*
X219275000Y-74060000D03*
X216325000Y-74060000D03*
D22*
X104300000Y-65172500D03*
X104300000Y-62247500D03*
D16*
X172410000Y-92480000D03*
X172410000Y-93500000D03*
D19*
X141780000Y-133590000D03*
X141780000Y-132570000D03*
D18*
X202734728Y-95671600D03*
X201714728Y-95671600D03*
D23*
X152990000Y-90470000D03*
X152990000Y-92370000D03*
D13*
X132860000Y-98950000D03*
X132860000Y-97990000D03*
D19*
X150730000Y-65330000D03*
X150730000Y-64310000D03*
D13*
X130190000Y-98370000D03*
X130190000Y-97410000D03*
X125850000Y-75170000D03*
X125850000Y-76130000D03*
D11*
X189870000Y-68710000D03*
X190890000Y-68710000D03*
D14*
X138442500Y-67854750D03*
X139712500Y-67854750D03*
X140982500Y-67854750D03*
X142252500Y-67854750D03*
X143522500Y-67854750D03*
X144792500Y-67854750D03*
X146062500Y-67854750D03*
X147332500Y-67854750D03*
X147332500Y-73326750D03*
X146062500Y-73326750D03*
X144792500Y-73326750D03*
X143522500Y-73326750D03*
X142252500Y-73326750D03*
X140982500Y-73326750D03*
X139712500Y-73326750D03*
X138442500Y-73326750D03*
D18*
X80330000Y-138105000D03*
X79310000Y-138105000D03*
D13*
X136000000Y-95980000D03*
X136960000Y-95980000D03*
D12*
X200399728Y-105871600D03*
X202049728Y-105871600D03*
D13*
X137860000Y-89600000D03*
X138820000Y-89600000D03*
D19*
X160495200Y-138237400D03*
X160495200Y-137217400D03*
D13*
X134720000Y-104930000D03*
X134720000Y-105890000D03*
D19*
X171720000Y-90010000D03*
X171720000Y-88990000D03*
D16*
X158110000Y-75530000D03*
X158110000Y-76550000D03*
D13*
X139690000Y-101960000D03*
X140650000Y-101960000D03*
D16*
X143580000Y-75390000D03*
X143580000Y-76410000D03*
D24*
X219222500Y-76270000D03*
X216297500Y-76270000D03*
D16*
X137630000Y-59860000D03*
X137630000Y-60880000D03*
X159450000Y-75520000D03*
X159450000Y-76540000D03*
D19*
X158700000Y-92623100D03*
X158700000Y-91603100D03*
D18*
X148590000Y-131181157D03*
X147570000Y-131181157D03*
D16*
X149324200Y-137217400D03*
X149324200Y-138237400D03*
X169840000Y-108290000D03*
X169840000Y-109310000D03*
D11*
X189870000Y-67810000D03*
X190890000Y-67810000D03*
D16*
X110180000Y-95590296D03*
X110180000Y-96610296D03*
D13*
X184134000Y-147050000D03*
X184134000Y-148010000D03*
X160890000Y-128815600D03*
X161850000Y-128815600D03*
D18*
X200534728Y-95671600D03*
X199514728Y-95671600D03*
D13*
X151312200Y-137233400D03*
X151312200Y-138193400D03*
D25*
X169105000Y-107060000D03*
X167555000Y-107060000D03*
D16*
X140190000Y-75410000D03*
X140190000Y-76430000D03*
X139990000Y-59860000D03*
X139990000Y-60880000D03*
D26*
X200305000Y-75800000D03*
X203255000Y-75800000D03*
D13*
X118780000Y-86410000D03*
X117820000Y-86410000D03*
D18*
X215970000Y-125240000D03*
X214950000Y-125240000D03*
D16*
X168716000Y-108280000D03*
X168716000Y-109300000D03*
D11*
X205964200Y-149540400D03*
X206984200Y-149540400D03*
D16*
X161516200Y-137217400D03*
X161516200Y-138237400D03*
D19*
X176650000Y-148360000D03*
X176650000Y-147340000D03*
D13*
X139670000Y-102880000D03*
X140630000Y-102880000D03*
D25*
X177420000Y-100685000D03*
X177420000Y-99135000D03*
X87885000Y-95390000D03*
X86335000Y-95390000D03*
X112873000Y-97004998D03*
X112873000Y-95454998D03*
D16*
X174890000Y-90630000D03*
X174890000Y-91650000D03*
D13*
X182650000Y-77480000D03*
X183610000Y-77480000D03*
X134800000Y-95990000D03*
X133840000Y-95990000D03*
X193320000Y-81950000D03*
X192360000Y-81950000D03*
X158310000Y-123300000D03*
X158310000Y-122340000D03*
D19*
X141190000Y-76410000D03*
X141190000Y-75390000D03*
D13*
X193550000Y-61990000D03*
X192590000Y-61990000D03*
D19*
X170820000Y-90010000D03*
X170820000Y-88990000D03*
D13*
X137860000Y-88790000D03*
X138820000Y-88790000D03*
X142630000Y-95170000D03*
X143590000Y-95170000D03*
D16*
X137400000Y-54950000D03*
X137400000Y-55970000D03*
D19*
X171150000Y-86620000D03*
X171150000Y-85600000D03*
D13*
X156402200Y-137227400D03*
X156402200Y-138187400D03*
D12*
X199990000Y-68300000D03*
X201640000Y-68300000D03*
D13*
X178326528Y-106111423D03*
X177366528Y-106111423D03*
X154130000Y-133510000D03*
X154130000Y-134470000D03*
D11*
X117810000Y-85460000D03*
X118830000Y-85460000D03*
D13*
X161190000Y-124800000D03*
X162150000Y-124800000D03*
D11*
X188510000Y-62380000D03*
X189530000Y-62380000D03*
D13*
X150990000Y-126750000D03*
X150030000Y-126750000D03*
D16*
X160650000Y-91600000D03*
X160650000Y-92620000D03*
D12*
X200399728Y-98071600D03*
X202049728Y-98071600D03*
X200399728Y-101871600D03*
X202049728Y-101871600D03*
D13*
X133420000Y-109010000D03*
X133420000Y-109970000D03*
X137310000Y-109050000D03*
X137310000Y-110010000D03*
X172018528Y-104886423D03*
X172978528Y-104886423D03*
D12*
X205839200Y-64289800D03*
X207489200Y-64289800D03*
D13*
X156880000Y-133575600D03*
X156880000Y-134535600D03*
X159680000Y-91620000D03*
X159680000Y-92580000D03*
X137280000Y-99170000D03*
X137280000Y-98210000D03*
D27*
X207810000Y-52157500D03*
X207810000Y-55082500D03*
D13*
X155480000Y-94560000D03*
X156440000Y-94560000D03*
D16*
X167700000Y-108280000D03*
X167700000Y-109300000D03*
D19*
X169180000Y-87650000D03*
X169180000Y-86630000D03*
D13*
X139640000Y-103760000D03*
X140600000Y-103760000D03*
X200100000Y-146970000D03*
X200100000Y-147930000D03*
D16*
X173950000Y-90630000D03*
X173950000Y-91650000D03*
D13*
X118563000Y-97059998D03*
X118563000Y-96099998D03*
D19*
X201116000Y-147960000D03*
X201116000Y-146940000D03*
D16*
X133330000Y-75430000D03*
X133330000Y-76450000D03*
D19*
X184640000Y-88990000D03*
X184640000Y-87970000D03*
X170870000Y-109290000D03*
X170870000Y-108270000D03*
D16*
X134900000Y-59860000D03*
X134900000Y-60880000D03*
D28*
X155776900Y-88203100D03*
X153440900Y-88203100D03*
D19*
X184240000Y-95000000D03*
X184240000Y-93980000D03*
D11*
X207258728Y-110767800D03*
X208278728Y-110767800D03*
D19*
X185550000Y-90800000D03*
X185550000Y-89780000D03*
D13*
X133740000Y-98950000D03*
X133740000Y-97990000D03*
X132460000Y-109970000D03*
X132460000Y-109010000D03*
D23*
X151140000Y-90540000D03*
X151140000Y-92440000D03*
D16*
X132060000Y-75430000D03*
X132060000Y-76450000D03*
D12*
X205839200Y-84373580D03*
X207489200Y-84373580D03*
D13*
X175816528Y-100266423D03*
X175816528Y-99306423D03*
D19*
X165575200Y-138237400D03*
X165575200Y-137217400D03*
X185150000Y-148060000D03*
X185150000Y-147040000D03*
D18*
X141840000Y-95170000D03*
X140820000Y-95170000D03*
X208276728Y-111783800D03*
X207256728Y-111783800D03*
D15*
X214405000Y-129580000D03*
X217330000Y-129580000D03*
D13*
X160940000Y-131805600D03*
X161900000Y-131805600D03*
D29*
X125765000Y-96990000D03*
X124115000Y-96990000D03*
D19*
X179610000Y-112340000D03*
X179610000Y-111320000D03*
D29*
X146895000Y-95700000D03*
X145245000Y-95700000D03*
D18*
X156488900Y-93573100D03*
X155468900Y-93573100D03*
D11*
X140680000Y-113360000D03*
X141700000Y-113360000D03*
D13*
X138150000Y-99170000D03*
X138150000Y-98210000D03*
D11*
X214428100Y-136150299D03*
X215448100Y-136150299D03*
D21*
X213040000Y-115950000D03*
X210090000Y-115950000D03*
D16*
X145210000Y-54745000D03*
X145210000Y-55765000D03*
D13*
X192640000Y-88310000D03*
X193600000Y-88310000D03*
D30*
X114693000Y-97009998D03*
D31*
X114693000Y-96059988D03*
X114693000Y-95110002D03*
X117487000Y-95110002D03*
X117487000Y-97009998D03*
D32*
X149340000Y-92352500D03*
X149340000Y-90527500D03*
D26*
X200010000Y-59740000D03*
X202960000Y-59740000D03*
D18*
X148590000Y-132140000D03*
X147570000Y-132140000D03*
D13*
X83590000Y-117610000D03*
X84550000Y-117610000D03*
D16*
X132520000Y-59860000D03*
X132520000Y-60880000D03*
D11*
X214528100Y-139150299D03*
X215548100Y-139150299D03*
D27*
X110330000Y-62227500D03*
X110330000Y-65152500D03*
D13*
X140600000Y-100990000D03*
X139640000Y-100990000D03*
X128980000Y-97830000D03*
X128980000Y-96870000D03*
D25*
X119763000Y-96979998D03*
X119763000Y-95429998D03*
D13*
X128080000Y-97830000D03*
X128080000Y-96870000D03*
D16*
X146180000Y-75370000D03*
X146180000Y-76390000D03*
D13*
X126830000Y-75160000D03*
X126830000Y-76120000D03*
X173778528Y-108566423D03*
X173778528Y-107606423D03*
X194610000Y-68310000D03*
X193650000Y-68310000D03*
X138970000Y-99170000D03*
X138970000Y-98210000D03*
D33*
X205240000Y-52125000D03*
X205240000Y-55075000D03*
D18*
X80330000Y-137220000D03*
X79310000Y-137220000D03*
D34*
X214395000Y-131660000D03*
X217345000Y-131660000D03*
D29*
X181515000Y-77430000D03*
X179865000Y-77430000D03*
D13*
X149290000Y-89140000D03*
X150250000Y-89140000D03*
D12*
X200085000Y-88390000D03*
X201735000Y-88390000D03*
D19*
X155415200Y-138237400D03*
X155415200Y-137217400D03*
D11*
X189750000Y-87970000D03*
X190770000Y-87970000D03*
D13*
X158528900Y-90523100D03*
X159488900Y-90523100D03*
X172148528Y-106136423D03*
X173108528Y-106136423D03*
X138140000Y-75360000D03*
X138140000Y-76320000D03*
X175650000Y-147370000D03*
X175650000Y-148330000D03*
D35*
X158330000Y-89200000D03*
X158330000Y-87300000D03*
D13*
X136430000Y-110000000D03*
X136430000Y-109040000D03*
X192250000Y-147020000D03*
X192250000Y-147980000D03*
X175550000Y-68330000D03*
X175550000Y-69290000D03*
X172148528Y-103736423D03*
X173108528Y-103736423D03*
D14*
X159425000Y-73336000D03*
X158155000Y-73336000D03*
X156885000Y-73336000D03*
X155615000Y-73336000D03*
X154345000Y-73336000D03*
X153075000Y-73336000D03*
X151805000Y-73336000D03*
X150535000Y-73336000D03*
X150535000Y-67864000D03*
X151805000Y-67864000D03*
X153075000Y-67864000D03*
X154345000Y-67864000D03*
X155615000Y-67864000D03*
X156885000Y-67864000D03*
X158155000Y-67864000D03*
X159425000Y-67864000D03*
D19*
X167917000Y-148475600D03*
X167917000Y-147455600D03*
D13*
X174178528Y-100205800D03*
X174178528Y-99245800D03*
D18*
X148590000Y-130165157D03*
X147570000Y-130165157D03*
D11*
X190030000Y-82450000D03*
X191050000Y-82450000D03*
D13*
X135570000Y-104090000D03*
X135570000Y-103130000D03*
X148720000Y-111990000D03*
X147760000Y-111990000D03*
D11*
X189750000Y-88940000D03*
X190770000Y-88940000D03*
D30*
X154590000Y-92442799D03*
D31*
X154590000Y-91492789D03*
X154590000Y-90542803D03*
X157384000Y-90542803D03*
X157384000Y-92442799D03*
D16*
X129820000Y-75470000D03*
X129820000Y-76490000D03*
D13*
X137230000Y-75370000D03*
X137230000Y-76330000D03*
D19*
X149520000Y-76430000D03*
X149520000Y-75410000D03*
D36*
X88230000Y-97340000D03*
X84930000Y-97340000D03*
D13*
X83590000Y-115180000D03*
X84550000Y-115180000D03*
D37*
X141320000Y-110495000D03*
X141320000Y-109225000D03*
X141320000Y-107955000D03*
X141320000Y-106685000D03*
X148520000Y-106685000D03*
X148520000Y-107955000D03*
X148520000Y-109225000D03*
X148520000Y-110495000D03*
D13*
X151160000Y-131825600D03*
X150200000Y-131825600D03*
D26*
X205675000Y-75780000D03*
X208625000Y-75780000D03*
D11*
X205964200Y-147000400D03*
X206984200Y-147000400D03*
D35*
X160240000Y-89230000D03*
X160240000Y-87330000D03*
D13*
X177630000Y-102140000D03*
X177630000Y-103100000D03*
D12*
X134655000Y-98960000D03*
X136305000Y-98960000D03*
D13*
X176178528Y-108616423D03*
X176178528Y-107656423D03*
D12*
X205839200Y-66321800D03*
X207489200Y-66321800D03*
D18*
X148590000Y-129200000D03*
X147570000Y-129200000D03*
D19*
X150335200Y-138237400D03*
X150335200Y-137217400D03*
D13*
X139610000Y-100170000D03*
X140570000Y-100170000D03*
X131130000Y-98370000D03*
X131130000Y-97410000D03*
D18*
X186870000Y-93270000D03*
X185850000Y-93270000D03*
D12*
X200165000Y-82040000D03*
X201815000Y-82040000D03*
D18*
X215920000Y-120820000D03*
X214900000Y-120820000D03*
D38*
X107860000Y-55280000D03*
X105960000Y-55280000D03*
X106910000Y-53280000D03*
D19*
X193266000Y-148030000D03*
X193266000Y-147010000D03*
X168230000Y-87650000D03*
X168230000Y-86630000D03*
X128220000Y-76510000D03*
X128220000Y-75490000D03*
D13*
X133070000Y-104100000D03*
X132110000Y-104100000D03*
X137860000Y-90410000D03*
X138820000Y-90410000D03*
D19*
X184000000Y-91780000D03*
X184000000Y-90760000D03*
D13*
X83590000Y-120250000D03*
X84550000Y-120250000D03*
D12*
X200130000Y-61930000D03*
X201780000Y-61930000D03*
D21*
X203428000Y-56822200D03*
X200478000Y-56822200D03*
D13*
X134790000Y-96910000D03*
X133830000Y-96910000D03*
M02*
